<svg width="93" height="86" viewBox="0 0 93 86" fill="none" xmlns="http://www.w3.org/2000/svg">
<path d="M13.2294 0H79.3761C86.6721 0 92.6055 5.93336 92.6055 13.2294V52.9174C92.6055 60.2134 86.6721 66.1468 79.3761 66.1468H37.1745C40.0303 63.6873 42.3235 60.6423 43.8985 57.2183C45.4736 53.7943 46.2935 50.0716 46.3027 46.3027C46.2935 42.5339 45.4736 38.8111 43.8985 35.3871C42.3235 31.9632 40.0303 28.9181 37.1745 26.4587H69.4541C70.3313 26.4587 71.1725 26.1103 71.7927 25.49C72.413 24.8698 72.7614 24.0285 72.7614 23.1514C72.7614 22.2742 72.413 21.433 71.7927 20.8127C71.1725 20.1925 70.3313 19.844 69.4541 19.844H19.844C16.0752 19.8532 12.3524 20.6732 8.92845 22.2482C5.50447 23.8232 2.45943 26.1165 0 28.9723V13.2294C0 5.93336 5.93336 0 13.2294 0ZM56.2247 46.3027H69.4541C70.3313 46.3027 71.1725 45.9543 71.7927 45.334C72.413 44.7138 72.7614 43.8726 72.7614 42.9954C72.7614 42.1182 72.413 41.277 71.7927 40.6567C71.1725 40.0365 70.3313 39.6881 69.4541 39.6881H56.2247C55.3476 39.6881 54.5063 40.0365 53.8861 40.6567C53.2659 41.277 52.9174 42.1182 52.9174 42.9954C52.9174 43.8726 53.2659 44.7138 53.8861 45.334C54.5063 45.9543 55.3476 46.3027 56.2247 46.3027ZM19.844 66.1468C25.107 66.1468 30.1544 64.0561 33.8759 60.3346C37.5974 56.6131 39.6881 51.5657 39.6881 46.3027C39.6881 41.0398 37.5974 35.9924 33.8759 32.2709C30.1544 28.5494 25.107 26.4587 19.844 26.4587C14.5811 26.4587 9.53366 28.5494 5.81218 32.2709C2.0907 35.9924 0 41.0398 0 46.3027C0 51.5657 2.0907 56.6131 5.81218 60.3346C9.53366 64.0561 14.5811 66.1468 19.844 66.1468ZM6.61468 82.6834V69.0771C10.6188 71.4578 15.1856 72.7274 19.844 72.7548C24.686 72.7548 29.1641 71.3525 33.0734 69.0771V82.6768C33.0701 83.2748 32.9063 83.861 32.5991 84.3741C32.2919 84.8873 31.8527 85.3085 31.3271 85.5939C30.7996 85.8754 30.2059 86.0092 29.6086 85.9813C29.0113 85.9534 28.4327 85.7647 27.9338 85.4352L19.844 80.0376L11.7543 85.4285C11.2582 85.7668 10.679 85.9628 10.0794 85.9952C9.47985 86.0276 8.88287 85.8952 8.35324 85.6123C7.82362 85.3294 7.38157 84.9069 7.07509 84.3906C6.7686 83.8743 6.60937 83.2839 6.61468 82.6834Z" fill="#8CC63F"/>
</svg>
