<svg width="86" height="86" viewBox="0 0 86 86" fill="none" xmlns="http://www.w3.org/2000/svg">
<path d="M31.0004 43.9915C31.5433 46.3426 28.9642 48.1294 26.9578 46.8752L20.1154 42.5996L11.5713 56.2725C9.34002 59.8427 11.919 64.5 16.127 64.5H24.8593C25.9725 64.5 26.875 65.4025 26.875 66.5156V73.2343C26.875 74.3474 25.9725 75.2499 24.8593 75.2499H16.1443C3.49051 75.2499 -4.23069 61.3005 2.47026 50.5787L11.0068 36.9081L4.16625 32.6337C2.13701 31.366 2.66024 28.273 4.98577 27.736L23.5021 23.4612C24.9485 23.1273 26.3914 24.0291 26.7253 25.4752L31.0004 43.9915ZM47.5556 13.2676L54.4909 24.3663L47.6478 28.6422C45.6236 29.9067 46.1361 33.0015 48.4674 33.5399L66.9837 37.8146C68.4404 38.1504 69.8753 37.2372 70.2069 35.8007L74.4817 17.2844C75.0187 14.959 72.4678 13.1324 70.439 14.4007L63.6049 18.6711L56.674 7.57143C50.3716 -2.51222 35.6428 -2.5354 29.326 7.57143L26.3087 12.4032C25.7192 13.3472 26.0064 14.5903 26.9504 15.1802L32.6477 18.7403C33.5917 19.3302 34.8353 19.0432 35.4253 18.0992L38.4421 13.2713C40.5774 9.85463 45.4923 9.96632 47.5556 13.2676ZM83.5288 50.5787L78.9072 43.1772C78.3174 42.2327 77.0736 41.9453 76.1293 42.5354L70.4417 46.0894C69.4977 46.6793 69.2105 47.9228 69.8004 48.867L74.4303 56.2764C76.6571 59.8392 74.0848 64.5001 69.8723 64.5001H53.75V56.4408C53.75 54.0535 50.8539 52.8492 49.1622 54.5406L35.7247 67.9749C34.6751 69.0243 34.6751 70.726 35.7247 71.7755L49.1622 85.2111C50.8423 86.8915 53.75 85.7144 53.75 83.3106V75.2499H69.8548C82.4985 75.2499 90.2353 61.3091 83.5288 50.5787Z" fill="#8CC63F"/>
</svg>
