<svg width="86" height="86" viewBox="0 0 86 86" fill="none" xmlns="http://www.w3.org/2000/svg">
<path d="M75.938 32.852L74.39 28.81L82.388 25.8C78.432 16.684 71.38 9.374 62.522 4.902L59.082 12.556L55.126 10.75L58.566 3.01C53.75 1.118 48.504 0 43 0C38.442 0 34.056 0.946 29.928 2.15L32.852 10.062L28.81 11.61L25.8 3.612C16.684 7.568 9.374 14.62 4.902 23.478L12.556 26.918L10.75 30.874L3.01 27.434C1.118 32.25 0 37.496 0 43C0 47.558 0.946 51.944 2.15 56.072L10.062 53.148L11.61 57.19L3.612 60.2C7.568 69.316 14.62 76.626 23.478 81.098L26.918 73.444L30.874 75.25L27.434 82.99C32.25 84.882 37.496 86 43 86C47.558 86 51.944 85.054 56.072 83.85L53.148 75.938L57.19 74.39L60.2 82.388C69.316 78.432 76.626 71.38 81.098 62.522L73.444 59.082L75.25 55.126L82.99 58.566C84.882 53.75 86 48.504 86 43C86 38.442 85.054 34.056 83.85 29.928L75.938 32.852ZM52.89 66.822C39.732 72.24 24.596 66.048 19.178 52.89C13.76 39.732 19.952 24.596 33.11 19.178C46.268 13.76 61.404 19.952 66.822 33.11C68.1281 36.2375 68.8036 39.5921 68.8099 42.9813C68.8162 46.3705 68.153 49.7276 66.8586 52.8599C65.5641 55.9922 63.6638 58.838 61.2667 61.234C58.8696 63.63 56.0229 65.529 52.89 66.822Z" fill="#8CC63F"/>
</svg>
