<svg width="395" height="76" viewBox="0 0 395 76" fill="none" xmlns="http://www.w3.org/2000/svg">
<path fill-rule="evenodd" clip-rule="evenodd" d="M0 23.7938C3.60946 10.1406 16.321 1.19546 30.7588 0.0969333C40.9595 -0.687731 52.4156 3.23559 60.5761 13.907C67.1673 22.3814 69.3643 33.0528 68.2658 51.5709C67.6381 61.4577 68.1089 71.6583 73.2877 73.8554C66.5395 76.0524 58.2221 71.8153 53.9849 64.7533C49.4339 71.0306 40.4887 74.9539 30.9158 75.5816C16.0072 75.5816 4.70799 66.4795 1.88319 53.768C1.72626 52.9833 1.56933 52.3556 1.4124 51.5709C1.56933 52.1987 1.88319 52.8264 2.19706 53.4541C13.967 80.9174 55.7112 72.1291 56.025 40.5856C56.182 24.4215 44.0981 11.2392 28.8756 9.9837C27.4633 9.82677 25.8939 9.82677 24.4815 9.82677C18.8319 10.1406 7.53278 12.0238 0 23.7938Z" fill="#009CE0"/>
<path fill-rule="evenodd" clip-rule="evenodd" d="M2.19697 51.7275C1.8831 51.0998 1.72617 50.4721 1.56924 49.8443C-0.470892 35.7204 9.10201 24.1074 19.7734 22.695C30.7588 21.1256 37.5069 28.5015 37.0361 36.3481C33.2697 31.3263 27.1493 30.3847 22.9121 32.1109C18.2041 34.1511 15.8501 39.3298 16.164 43.2532C16.7917 50.1582 22.7552 54.8662 30.6018 54.3954C44.098 53.6107 49.2768 40.5853 48.1783 30.2277C46.7659 18.9286 38.2915 11.0819 27.934 9.9834C42.5287 11.0819 54.1418 23.7935 53.9848 39.3298C53.3571 69.461 13.4961 77.9353 2.19697 51.7275Z" fill="#FFBA00"/>
<path d="M188.633 34.3083C188.633 32.8959 188.476 32.1113 188.162 31.6405C187.849 31.3266 187.378 31.0127 186.436 31.0127C185.338 31.0127 184.396 31.1697 183.768 31.6405C183.141 32.1113 182.984 32.739 182.984 33.5236C182.984 34.4652 183.298 35.2499 184.082 36.0346C184.867 36.8192 185.652 37.447 186.75 37.7608L188.476 38.3886V34.3083H188.633ZM173.568 33.5236C173.568 32.1113 174.038 31.0127 174.98 30.2281C175.922 29.4434 177.177 28.8157 178.59 28.5018C180.002 28.1879 181.571 28.031 183.141 28.031H200.089V29.4434C199.305 29.4434 198.677 29.6003 198.363 30.2281C198.049 30.6989 197.735 31.3266 197.735 31.9543C197.578 32.5821 197.578 33.5237 197.578 34.7791V47.1768C197.578 48.9031 197.735 50.3155 198.049 51.1001C198.363 52.0417 198.991 52.3556 200.246 52.3556V53.768H186.75V52.1987C187.692 52.1987 188.319 51.8848 188.476 51.2571C188.79 50.6293 188.947 49.6877 188.947 48.4323V47.1768V41.6842L188.319 41.5272C186.436 44.1951 185.024 46.8629 184.082 49.3739C183.768 50.0016 183.611 50.6293 183.611 51.2571C183.611 52.1987 184.082 52.6695 185.181 52.6695V54.0819H171.214V52.6695C171.685 52.6695 172.155 52.1987 172.783 51.2571C173.411 50.3155 174.195 48.9031 175.137 47.1768C176.549 44.352 178.276 41.8411 180.159 39.644C178.903 39.3302 177.648 38.8594 176.706 38.2316C175.765 37.7608 174.98 37.1331 174.509 36.3484C173.882 35.4068 173.568 34.4652 173.568 33.5236ZM143.75 33.6806C143.75 30.8558 142.966 29.4434 141.24 29.4434V28.1879H154.893V29.4434C154.108 29.4434 153.48 29.7573 153.166 30.5419C152.853 31.1697 152.696 32.2682 152.696 33.6806V40.2718L158.973 33.6806C158.973 32.2682 158.816 31.1697 158.502 30.5419C158.188 29.9142 157.561 29.4434 156.776 29.4434V28.1879H170.272V29.4434C168.546 29.4434 167.761 30.8558 167.761 33.6806V48.4323C167.761 51.2571 168.546 52.6695 170.272 52.6695V53.9249H156.776V52.6695C157.561 52.6695 158.188 52.3556 158.502 51.5709C158.816 50.9432 158.973 49.8447 158.973 48.4323V38.0747L152.696 44.6659V48.4323C152.696 49.8447 152.853 50.9432 153.166 51.5709C153.48 52.1987 154.108 52.6695 154.893 52.6695V53.9249H141.24V52.6695C142.966 52.6695 143.75 51.2571 143.75 48.4323V33.6806ZM132.608 38.8594C134.021 39.1732 135.276 39.644 136.532 40.2718C137.63 40.8995 138.572 41.6842 139.199 42.6258C139.827 43.5674 140.141 44.6659 140.141 45.9213C140.141 48.4323 139.042 50.4724 136.688 52.0417C134.334 53.6111 130.882 54.2388 126.488 54.2388C125.86 54.2388 124.919 54.2388 123.506 54.0819C122.094 53.9249 120.995 53.9249 120.367 53.9249C119.426 53.9249 118.484 54.0819 117.7 54.2388L117.072 54.3957L115.346 46.0783L116.287 45.7644L116.444 46.0783C117.072 47.3337 118.484 48.4323 120.211 49.3739C122.094 50.3155 123.82 50.7863 125.546 50.7863C127.116 50.7863 128.528 50.3155 129.313 49.3739C130.254 48.4323 130.725 47.1768 130.725 45.6075C130.725 44.5089 130.411 43.5674 129.94 42.9396C129.47 42.155 128.685 41.6842 127.429 41.2134C126.331 40.7426 124.762 40.5856 122.878 40.5856H122.408V37.7608H122.878C124.291 37.7608 125.389 37.6039 126.174 37.29C126.959 36.9762 127.429 36.5054 127.743 36.0346C128.057 35.4068 128.214 34.6222 128.214 33.6806C128.214 32.739 127.9 32.1113 127.273 31.4835C126.645 30.8558 126.017 30.5419 125.075 30.5419C123.506 30.5419 121.937 31.0127 120.681 31.9543C119.426 32.8959 118.17 34.1514 117.229 35.8776L117.072 36.1915L115.816 35.8776L119.112 26.4617L119.583 27.2463C119.74 27.5602 120.054 27.7171 120.524 27.7171C120.681 27.7171 120.995 27.7171 121.623 27.5602C122.094 27.5602 122.878 27.4033 123.663 27.4033C124.448 27.4033 125.075 27.2463 125.86 27.2463C127.9 27.2463 129.783 27.4033 131.196 27.5602C132.765 27.8741 133.864 28.1879 134.805 28.6587C135.747 29.1295 136.375 29.7573 136.845 30.5419C137.316 31.3266 137.473 32.1113 137.473 33.2098C137.473 34.4652 137.002 35.5638 135.904 36.5054C135.119 37.9178 134.021 38.5455 132.608 38.8594ZM99.6523 41.2134C98.8677 41.6842 98.2399 42.4688 97.6122 43.4104C96.9845 44.352 96.8275 45.2936 96.8275 46.2352C96.8275 47.0199 96.9845 47.8045 97.4553 48.4323C97.9261 49.06 98.5538 49.3739 99.3385 49.3739C100.437 49.3739 101.379 48.9031 102.006 47.8045C102.634 46.706 103.105 45.4505 103.262 44.0382C103.419 42.6258 103.576 41.2134 103.576 39.801C101.849 39.9579 100.594 40.5856 99.6523 41.2134ZM103.576 36.3484C103.576 35.4068 103.576 34.6222 103.419 34.1514C103.262 33.6806 103.105 33.2098 102.948 32.8959C102.163 31.9543 101.065 31.4835 99.3385 31.4835C97.4553 31.4835 95.8859 32.1113 94.3166 33.2098C92.9042 34.3083 91.8057 35.8776 91.021 37.7608L90.2364 37.6039L91.1779 28.1879C91.4918 28.5018 91.8057 28.8157 91.9626 28.9726C92.1195 29.1295 92.4334 29.1295 92.7473 29.1295C93.2181 29.1295 93.8458 28.9726 94.6305 28.8157C96.3567 28.3449 97.7691 28.031 99.0246 27.7171C100.28 27.4033 101.692 27.4033 103.105 27.4033C104.517 27.4033 105.773 27.5602 107.028 27.7171C108.284 28.031 109.225 28.5018 110.167 29.1295C110.795 29.7573 111.265 30.385 111.736 31.3266C112.05 32.2682 112.207 33.0529 112.364 33.9944C112.364 34.936 112.521 35.8776 112.521 37.29V46.8629V48.1184C112.521 49.5308 112.678 50.4724 112.992 51.2571C113.305 52.0417 113.933 52.5125 115.032 52.6695V53.9249H105.302C104.517 53.1403 104.046 51.8848 103.733 50.4724C103.105 51.414 102.477 52.1987 101.379 52.8264C100.437 53.4541 99.3385 53.9249 98.2399 54.2388C97.1414 54.5526 96.0429 54.7096 95.1013 54.7096C93.2181 54.7096 91.6487 54.0819 90.2364 52.9833C88.824 51.7279 88.1962 50.1585 88.1962 48.1184C88.1962 45.6075 88.9809 43.5674 90.7072 41.998C92.4334 40.4287 94.3166 39.3302 96.6706 38.5455C98.8677 37.7608 101.379 37.1331 103.89 36.8192V36.3484H103.576Z" fill="#FFBA00"/>
<path d="M386.212 47.1772C386.212 48.5896 386.212 49.5311 386.369 50.3158C386.369 51.1005 386.683 51.5713 386.996 52.0421C387.31 52.5129 387.781 52.6698 388.566 52.6698V53.9253H375.07V52.6698C376.168 52.6698 376.953 52.199 377.11 51.4143C377.424 50.6297 377.58 49.2173 377.58 47.1772V31.4839C376.325 31.4839 375.226 31.7977 374.128 32.4255C373.029 33.0532 372.088 33.8379 371.46 34.9364C370.675 36.0349 370.205 37.4473 369.734 39.0166L368.635 38.8597L370.989 27.5605C371.303 28.1883 372.088 28.5021 373.343 28.5021C373.657 28.5021 373.814 28.5021 373.971 28.5021C374.128 28.5021 374.442 28.5021 374.599 28.5021H388.723C389.037 28.5021 389.193 28.5021 389.35 28.5021C389.507 28.5021 389.821 28.5021 389.978 28.5021C391.547 28.5021 392.489 28.1883 392.803 27.5605L395 38.8597L394.058 39.0166C393.274 36.5057 392.175 34.7795 390.92 33.524C389.664 32.2685 388.095 31.6408 386.212 31.6408V47.1772ZM341.957 33.6809C341.957 30.8561 341.172 29.4437 339.446 29.4437V28.1883H352.942V29.4437C352.157 29.4437 351.53 29.7576 351.216 30.3853C350.902 31.0131 350.745 32.1116 350.745 33.524V36.0349H357.022V33.524C357.022 32.1116 356.865 31.0131 356.551 30.3853C356.238 29.7576 355.61 29.2868 354.825 29.2868V28.1883H368.321V29.4437C366.595 29.4437 365.81 30.8561 365.81 33.6809V48.4326C365.81 51.2574 366.595 52.6698 368.321 52.6698V53.9253H354.825V52.6698C355.61 52.6698 356.238 52.3559 356.551 51.5713C356.865 50.9435 357.022 49.845 357.022 48.4326V39.6444H350.745V48.4326C350.745 49.845 350.902 50.9435 351.216 51.5713C351.53 52.199 352.157 52.6698 352.942 52.6698V53.9253H339.446V52.6698C341.172 52.6698 341.957 51.2574 341.957 48.4326V33.6809ZM328.46 36.8196V35.878C328.46 35.0933 328.304 34.3087 327.99 33.6809C327.676 33.0532 327.205 32.4255 326.734 32.1116C326.106 31.6408 325.479 31.4839 324.851 31.4839C323.439 31.4839 322.497 32.2685 321.869 33.6809C321.242 35.0933 320.928 36.8196 320.928 38.5458L328.46 36.8196ZM320.928 41.6845C321.242 44.0385 321.869 46.0786 323.125 47.8049C324.38 49.3742 325.95 50.3158 327.99 50.3158C329.873 50.3158 331.442 49.6881 332.855 48.5896C334.267 47.491 335.366 45.9217 336.15 44.0385L337.092 44.5093L334.267 54.553C333.639 54.0822 333.168 53.9253 332.698 53.9253C332.698 53.9253 332.384 53.9253 331.599 54.0822C329.088 54.553 327.048 54.7099 325.636 54.7099C324.851 54.7099 324.066 54.7099 323.125 54.553C322.183 54.3961 321.398 54.2391 320.614 54.0822C319.829 53.9253 318.888 53.4545 318.103 53.1406C317.318 52.6698 316.534 52.199 315.906 51.7282C314.337 50.4727 313.238 48.9034 312.296 47.0202C311.512 45.137 311.041 43.2538 311.041 41.0568C311.041 38.8597 311.355 36.9765 312.139 35.2503C312.924 33.524 313.866 32.2685 315.278 31.0131C316.534 29.9145 318.103 28.9729 319.829 28.5021C321.555 27.8744 323.282 27.7175 325.165 27.7175C327.205 27.7175 329.245 28.0313 330.971 28.816C332.698 29.6007 334.267 30.6992 335.366 32.2685C336.464 33.8379 337.249 35.7211 337.719 38.075L320.928 41.6845ZM282.95 46.8633C282.95 48.1188 282.95 49.0603 283.107 49.845C283.264 50.6297 283.421 51.2574 283.892 51.7282C284.205 52.199 284.833 52.5129 285.618 52.6698V53.9253H276.83V52.6698C277.614 52.5129 278.242 52.3559 278.556 51.8851C278.87 51.4143 279.184 50.9435 279.184 50.3158C279.34 49.6881 279.34 48.5896 279.34 47.3341V35.4072C279.34 33.524 279.184 32.1116 278.87 31.17C278.556 30.2284 277.928 29.7576 276.83 29.6007V28.1883H291.11V29.4437C290.483 29.4437 290.169 29.7576 290.169 30.5423C290.169 31.17 290.483 31.9547 291.11 32.7393L293.935 37.1335L296.76 32.7393C297.388 31.7977 297.702 31.0131 297.702 30.3853C297.702 29.7576 297.545 29.4437 297.074 29.4437V28.1883H309.629V29.4437C308.844 29.6007 308.216 29.9145 307.902 30.2284C307.588 30.6992 307.275 31.17 307.275 31.7977C307.118 32.4255 307.118 33.3671 307.118 34.7795V46.7064C307.118 48.7465 307.275 50.3158 307.588 51.1005C307.902 51.8851 308.53 52.3559 309.629 52.3559V53.6114H296.132V52.3559C297.074 52.3559 297.702 51.8851 297.859 51.4143C298.172 50.7866 298.329 49.845 298.329 48.7465V47.0202V36.3488L290.64 48.1188L283.264 36.5057V46.8633H282.95ZM265.687 36.8196V35.878C265.687 35.0933 265.53 34.3087 265.217 33.6809C264.903 33.0532 264.432 32.4255 263.961 32.1116C263.333 31.6408 262.706 31.4839 262.078 31.4839C260.665 31.4839 259.724 32.2685 259.096 33.6809C258.468 35.0933 258.155 36.8196 258.155 38.5458L265.687 36.8196ZM258.311 41.6845C258.625 44.0385 259.253 46.0786 260.509 47.8049C261.764 49.3742 263.333 50.3158 265.373 50.3158C267.257 50.3158 268.826 49.6881 270.238 48.5896C271.651 47.491 272.749 45.9217 273.534 44.0385L274.476 44.5093L271.651 54.553C271.023 54.0822 270.552 53.9253 270.081 53.9253C270.081 53.9253 269.768 53.9253 269.14 54.0822C266.629 54.553 264.589 54.7099 263.176 54.7099C262.392 54.7099 261.607 54.7099 260.665 54.553C259.724 54.3961 258.939 54.2391 258.155 54.0822C257.37 53.9253 256.428 53.4545 255.644 53.1406C254.859 52.6698 254.074 52.199 253.447 51.7282C251.877 50.4727 250.779 48.9034 249.837 47.0202C249.052 45.137 248.582 43.2538 248.582 41.0568C248.582 38.8597 248.896 36.9765 249.68 35.2503C250.465 33.524 251.406 32.2685 252.819 31.0131C254.074 29.9145 255.644 28.9729 257.37 28.5021C259.096 27.8744 260.822 27.7175 262.706 27.7175C264.746 27.7175 266.786 28.0313 268.512 28.816C270.238 29.6007 271.808 30.6992 272.906 32.2685C274.005 33.8379 274.789 35.7211 275.26 38.075L258.311 41.6845ZM236.655 53.9253H217.823V52.6698C219.549 52.6698 220.334 51.2574 220.334 48.4326V33.6809C220.334 30.8561 219.549 29.4437 217.823 29.4437V28.1883H231.162V29.4437C230.377 29.4437 229.75 29.7576 229.436 30.5423C229.122 31.17 228.965 32.2685 228.965 33.6809V48.4326C228.965 49.3742 229.122 50.0019 229.436 50.3158C229.75 50.6297 230.377 50.7866 231.162 50.7866H233.202C234.144 50.7866 234.615 50.6297 234.928 50.3158C235.242 50.0019 235.399 49.3742 235.399 48.4326V33.6809C235.399 32.2685 235.242 31.17 234.928 30.5423C234.615 29.9145 233.987 29.6007 233.202 29.6007V28.1883H246.542V29.4437C244.815 29.4437 244.031 30.8561 244.031 33.6809V48.4326C244.031 49.845 244.188 50.7866 244.344 51.4143C244.501 52.0421 244.815 52.3559 245.286 52.3559C245.6 52.3559 245.914 52.199 246.542 51.7282L248.582 63.6551L247.64 63.812C247.012 61.9288 246.228 60.2026 245.443 58.7902C244.658 57.3778 243.403 56.1223 241.99 55.1807C240.735 54.3961 238.852 53.9253 236.655 53.9253Z" fill="#009CE0"/>
</svg>
