<svg width="93" height="23" viewBox="0 0 93 23" fill="none" xmlns="http://www.w3.org/2000/svg">
<path d="M92.8868 14.7553H85.2604V13.4927H92.8868V14.7553Z" fill="#414042"/>
<path d="M92.8868 7.20801V8.45934H92.2074C92.7339 8.90665 93 9.50117 93 10.2486C93 10.7978 92.8472 11.2621 92.5471 11.6415C92.2414 12.0208 91.8224 12.2133 91.2788 12.2133C90.6844 12.2133 90.2371 12.0095 89.9313 11.5962C89.6256 11.1828 89.4727 10.6449 89.4727 9.97679C89.4727 9.43889 89.552 8.92929 89.7049 8.45368H89.603C89.218 8.45368 88.9292 8.57258 88.7254 8.80473C88.5216 9.03687 88.4197 9.3766 88.4197 9.81259C88.4197 10.3165 88.5329 10.8374 88.765 11.3923L87.7516 11.7377C87.4458 11.0526 87.293 10.3561 87.293 9.63706C87.293 8.8387 87.4968 8.23285 87.8988 7.82518C88.3008 7.41751 88.8783 7.21367 89.62 7.21367H92.8925L92.8868 7.20801ZM90.8938 8.43103H90.5825C90.4352 8.80473 90.3616 9.22939 90.3616 9.69368C90.3616 10.09 90.4409 10.4014 90.5938 10.6223C90.7466 10.8431 90.9618 10.9563 91.2392 10.9563C91.4883 10.9563 91.6865 10.8544 91.8337 10.6506C91.9809 10.4467 92.0545 10.1919 92.0545 9.88619C92.0545 9.46153 91.9469 9.11048 91.7318 8.8387C91.5166 8.56126 91.2392 8.42536 90.8938 8.42536V8.43103Z" fill="#414042"/>
<path d="M93 2.5706C93 3.32933 92.6773 3.95216 92.0262 4.43911H92.8811V5.70176H85.2548V4.43911H88.2838C87.5931 3.95216 87.2477 3.32933 87.2477 2.5706C87.2477 1.87416 87.5081 1.27398 88.029 0.764387C88.5499 0.254796 89.252 0 90.1352 0C91.0184 0 91.7035 0.254796 92.2187 0.764387C92.7396 1.27398 93 1.87416 93 2.5706ZM91.9017 2.86504C91.9017 2.41773 91.7375 2.04403 91.4091 1.74393C91.0807 1.43818 90.6504 1.29096 90.1125 1.29096C89.5747 1.29096 89.167 1.44384 88.8387 1.7496C88.5103 2.05535 88.3461 2.42905 88.3461 2.86504C88.3461 3.30102 88.5159 3.68038 88.85 3.99746C89.184 4.31454 89.6143 4.47308 90.1352 4.47308C90.6561 4.47308 91.075 4.31454 91.4034 3.99746C91.7318 3.68038 91.9017 3.30102 91.9017 2.86504Z" fill="#414042"/>
<path d="M0 22.1216V18.6338H0.611469V19.0811C0.849263 18.747 1.14934 18.5771 1.51735 18.5771C1.85706 18.5771 2.1458 18.7017 2.39492 18.9565C2.64404 19.2056 2.76294 19.551 2.76294 19.9757C2.76294 20.4004 2.63838 20.7344 2.39492 20.9892C2.15147 21.2383 1.85706 21.3686 1.51735 21.3686C1.14934 21.3686 0.849263 21.21 0.611469 20.8986V22.1273H0V22.1216ZM1.37581 20.8363C1.59095 20.8363 1.77213 20.7571 1.91933 20.5985C2.06654 20.44 2.14014 20.2305 2.14014 19.97C2.14014 19.7096 2.06654 19.5114 1.91933 19.3529C1.77213 19.1943 1.59095 19.115 1.37581 19.115C1.16066 19.115 0.979483 19.1943 0.826616 19.3585C0.673749 19.5227 0.594484 19.7266 0.594484 19.9814C0.594484 20.2362 0.673749 20.4343 0.826616 20.5985C0.979483 20.7571 1.16632 20.842 1.37581 20.842V20.8363Z" fill="#414042"/>
<path d="M6.14869 21.3066H5.54289V20.9782C5.32774 21.233 5.03899 21.3632 4.67664 21.3632C4.41054 21.3632 4.18407 21.2896 4.00289 21.1424C3.82171 20.9952 3.72546 20.7913 3.72546 20.5252C3.72546 20.2365 3.82738 20.0213 4.02554 19.8741C4.2237 19.7269 4.48414 19.6533 4.81252 19.6533C5.07296 19.6533 5.32208 19.6929 5.55421 19.7665V19.7155C5.55421 19.5287 5.49759 19.3871 5.38436 19.2909C5.27112 19.1946 5.10693 19.1437 4.89745 19.1437C4.65399 19.1437 4.39921 19.2003 4.13311 19.3135L3.96892 18.8209C4.2973 18.6737 4.63701 18.6001 4.98804 18.6001C5.3787 18.6001 5.66745 18.6964 5.86561 18.8945C6.06377 19.0927 6.16002 19.3701 6.16002 19.7325V21.3179L6.14869 21.3066ZM5.55421 20.3384V20.1855C5.37303 20.1119 5.16921 20.0779 4.94274 20.0779C4.75024 20.0779 4.59737 20.1175 4.4898 20.1912C4.38223 20.2648 4.32561 20.3723 4.32561 20.5026C4.32561 20.6215 4.37657 20.7177 4.47282 20.7913C4.56907 20.8649 4.69362 20.8989 4.84083 20.8989C5.04465 20.8989 5.21451 20.848 5.35039 20.7404C5.48627 20.6385 5.54855 20.5026 5.54855 20.3327L5.55421 20.3384Z" fill="#414042"/>
<path d="M8.29448 21.3686C7.83588 21.3686 7.44522 21.2327 7.1225 20.9609L7.41125 20.5532C7.66036 20.7684 7.94345 20.8703 8.25485 20.8703C8.39639 20.8703 8.51529 20.8363 8.61154 20.7684C8.70779 20.7004 8.75874 20.6099 8.75874 20.5023C8.75874 20.4004 8.71345 20.3211 8.6172 20.2588C8.52095 20.1965 8.39073 20.1682 8.21522 20.1682H7.88683V19.7266H8.21522C8.35676 19.7266 8.46999 19.6926 8.55492 19.6303C8.63985 19.568 8.68514 19.4831 8.68514 19.3812C8.68514 19.2906 8.64551 19.217 8.56058 19.1603C8.47566 19.1037 8.37375 19.0754 8.24353 19.0754C7.94345 19.0754 7.69433 19.166 7.48485 19.3472L7.21309 18.9622C7.5075 18.7074 7.86985 18.5771 8.30014 18.5771C8.59455 18.5771 8.83235 18.6451 9.01919 18.781C9.20602 18.9169 9.29661 19.0867 9.29661 19.2962C9.29661 19.5793 9.15507 19.7832 8.87764 19.9021C9.20036 20.0153 9.36455 20.2305 9.36455 20.5532C9.36455 20.7854 9.26264 20.9779 9.06448 21.1364C8.86632 21.295 8.60588 21.3742 8.28882 21.3742L8.29448 21.3686Z" fill="#414042"/>
<path d="M10.5139 22.1216V18.6338H11.1254V19.0811C11.3632 18.747 11.6633 18.5771 12.0313 18.5771C12.371 18.5771 12.6597 18.7017 12.9088 18.9565C13.158 19.2056 13.2769 19.551 13.2769 19.9757C13.2769 20.4004 13.1523 20.7344 12.9088 20.9892C12.6654 21.2383 12.371 21.3686 12.0313 21.3686C11.6633 21.3686 11.3632 21.21 11.1254 20.8986V22.1273H10.5139V22.1216ZM11.8897 20.8363C12.1049 20.8363 12.286 20.7571 12.4333 20.5985C12.5805 20.44 12.6541 20.2305 12.6541 19.97C12.6541 19.7096 12.5805 19.5114 12.4333 19.3529C12.286 19.1943 12.1049 19.115 11.8897 19.115C11.6746 19.115 11.4934 19.1943 11.3405 19.3585C11.1877 19.5227 11.1084 19.7266 11.1084 19.9814C11.1084 20.2362 11.1877 20.4343 11.3405 20.5985C11.4934 20.7571 11.6802 20.842 11.8897 20.842V20.8363Z" fill="#414042"/>
<path d="M16.6626 21.3066H16.0568V20.9782C15.8417 21.233 15.5529 21.3632 15.1906 21.3632C14.9245 21.3632 14.698 21.2896 14.5168 21.1424C14.3356 20.9952 14.2394 20.7913 14.2394 20.5252C14.2394 20.2365 14.3413 20.0213 14.5395 19.8741C14.7376 19.7269 14.9981 19.6533 15.3264 19.6533C15.5869 19.6533 15.836 19.6929 16.0681 19.7665V19.7155C16.0681 19.5287 16.0115 19.3871 15.8983 19.2909C15.785 19.1946 15.6208 19.1437 15.4114 19.1437C15.1679 19.1437 14.9131 19.2003 14.647 19.3135L14.4828 18.8209C14.8112 18.6737 15.1509 18.6001 15.502 18.6001C15.8926 18.6001 16.1814 18.6964 16.3795 18.8945C16.5777 19.0927 16.6739 19.3701 16.6739 19.7325V21.3179L16.6626 21.3066ZM16.0681 20.3384V20.1855C15.887 20.1119 15.6831 20.0779 15.4567 20.0779C15.2642 20.0779 15.1113 20.1175 15.0037 20.1912C14.8961 20.2648 14.8395 20.3723 14.8395 20.5026C14.8395 20.6215 14.8905 20.7177 14.9867 20.7913C15.083 20.8649 15.2075 20.8989 15.3547 20.8989C15.5586 20.8989 15.7284 20.848 15.8643 20.7404C16.0002 20.6385 16.0625 20.5026 16.0625 20.3327L16.0681 20.3384Z" fill="#414042"/>
<path d="M19.1934 21.3685C18.7631 21.3685 18.4234 21.2327 18.1799 20.9609C17.9365 20.6891 17.8176 20.3041 17.8176 19.8115C17.8176 19.6529 17.8176 19.5114 17.8289 19.3925C17.8346 19.2736 17.8515 19.1433 17.8798 19.0018C17.9025 18.8602 17.9421 18.7413 17.9874 18.6337C18.0384 18.5318 18.1007 18.4299 18.1743 18.3336C18.2479 18.2374 18.3498 18.1581 18.4687 18.0902C18.5876 18.0222 18.7291 17.9769 18.8876 17.943L20.3484 17.6372L20.4503 18.1298L18.9896 18.4469C18.7461 18.4979 18.5706 18.5884 18.4687 18.7187C18.3611 18.8489 18.3045 19.0131 18.2875 19.2056C18.3668 19.0697 18.497 18.9508 18.6725 18.8546C18.848 18.7526 19.0632 18.7073 19.3179 18.7073C19.6633 18.7073 19.9634 18.8319 20.2181 19.0867C20.4673 19.3358 20.5975 19.6473 20.5975 20.0096C20.5975 20.372 20.4673 20.7061 20.2012 20.9722C19.9351 21.2383 19.6067 21.3742 19.2047 21.3742L19.1934 21.3685ZM19.2047 20.8363C19.4312 20.8363 19.618 20.757 19.7595 20.5985C19.9011 20.44 19.9747 20.2474 19.9747 20.0153C19.9747 19.7832 19.9011 19.5906 19.7482 19.4321C19.5954 19.2736 19.4142 19.1943 19.1934 19.1943C18.9726 19.1943 18.7857 19.2736 18.6442 19.4321C18.5026 19.5906 18.429 19.7888 18.429 20.021C18.429 20.2531 18.5026 20.4456 18.6498 20.6042C18.797 20.7627 18.9839 20.842 19.199 20.842L19.2047 20.8363Z" fill="#414042"/>
<path d="M22.9924 21.3689C22.5847 21.3689 22.2507 21.233 21.9789 20.9612C21.7072 20.6894 21.5713 20.361 21.5713 19.9703C21.5713 19.5796 21.7072 19.2512 21.9789 18.9795C22.2507 18.7077 22.5904 18.5718 22.9981 18.5718C23.4057 18.5718 23.7397 18.7077 24.0115 18.9795C24.2833 19.2512 24.4192 19.5796 24.4192 19.9703C24.4192 20.361 24.2833 20.6837 24.0115 20.9555C23.7397 21.2273 23.3944 21.3632 22.9867 21.3632L22.9924 21.3689ZM23.0037 20.8366C23.2472 20.8366 23.4453 20.7517 23.5925 20.5875C23.7397 20.4233 23.8133 20.2195 23.8133 19.976C23.8133 19.7325 23.7341 19.5343 23.5812 19.3645C23.4283 19.2003 23.2302 19.1153 22.9924 19.1153C22.7546 19.1153 22.5564 19.2003 22.4092 19.3645C22.262 19.5287 22.1884 19.7325 22.1884 19.976C22.1884 20.2195 22.2677 20.4176 22.4206 20.5818C22.5734 20.7517 22.7716 20.8366 23.0037 20.8366Z" fill="#414042"/>
<path d="M26.027 21.3066V19.155H25.1664V18.6284H27.5047V19.155H26.6442V21.3066H26.027Z" fill="#414042"/>
<path d="M28.4957 21.3066V18.6284H29.1015V19.9081L30.2678 18.6284H30.9868L29.9507 19.7552L31.0774 21.3066H30.3527L29.5431 20.2025L29.1071 20.6611V21.3066H28.5013H28.4957Z" fill="#414042"/>
<path d="M34.1517 21.3066H33.5459V20.9782C33.3308 21.233 33.042 21.3632 32.6797 21.3632C32.4136 21.3632 32.1871 21.2896 32.0059 21.1424C31.8248 20.9952 31.7285 20.7913 31.7285 20.5252C31.7285 20.2365 31.8304 20.0213 32.0286 19.8741C32.2267 19.7269 32.4872 19.6533 32.8156 19.6533C33.076 19.6533 33.3251 19.6929 33.5573 19.7665V19.7155C33.5573 19.5287 33.5006 19.3871 33.3874 19.2909C33.2742 19.1946 33.11 19.1437 32.9005 19.1437C32.657 19.1437 32.4023 19.2003 32.1362 19.3135L31.972 18.8209C32.3004 18.6737 32.6401 18.6001 32.9911 18.6001C33.3817 18.6001 33.6705 18.6964 33.8687 18.8945C34.0668 19.0927 34.1631 19.3701 34.1631 19.7325V21.3179L34.1517 21.3066ZM33.5573 20.3384V20.1855C33.3761 20.1119 33.1723 20.0779 32.9458 20.0779C32.7533 20.0779 32.6004 20.1175 32.4929 20.1912C32.3853 20.2648 32.3287 20.3723 32.3287 20.5026C32.3287 20.6215 32.3796 20.7177 32.4759 20.7913C32.5721 20.8649 32.6967 20.8989 32.8439 20.8989C33.0477 20.8989 33.2176 20.848 33.3534 20.7404C33.4893 20.6385 33.5516 20.5026 33.5516 20.3327L33.5573 20.3384Z" fill="#414042"/>
<path d="M38.6528 21.3686C38.2565 21.3686 37.9281 21.2327 37.6677 20.9666C37.4072 20.7004 37.2714 20.372 37.2714 19.987V19.9757C37.2714 19.5907 37.4016 19.2623 37.6677 18.9905C37.9338 18.7187 38.2622 18.5771 38.6585 18.5771C39.0888 18.5771 39.4455 18.73 39.7286 19.0414L39.3492 19.4491C39.1341 19.2283 38.9076 19.115 38.6528 19.115C38.432 19.115 38.2508 19.2 38.1036 19.3642C37.9564 19.5284 37.8828 19.7322 37.8828 19.9644V19.9757C37.8828 20.2192 37.9564 20.423 38.1093 20.5872C38.2622 20.7514 38.449 20.8363 38.6868 20.8363C38.9359 20.8363 39.1624 20.7231 39.3832 20.5023L39.7512 20.8646C39.604 21.0288 39.4455 21.1534 39.2756 21.2383C39.1058 21.3233 38.8963 21.3686 38.6528 21.3686Z" fill="#414042"/>
<path d="M43.035 21.3066H42.4292V20.9782C42.2141 21.233 41.9253 21.3632 41.563 21.3632C41.2969 21.3632 41.0704 21.2896 40.8892 21.1424C40.7081 20.9952 40.6118 20.7913 40.6118 20.5252C40.6118 20.2365 40.7137 20.0213 40.9119 19.8741C41.1101 19.7269 41.3705 19.6533 41.6989 19.6533C41.9593 19.6533 42.2084 19.6929 42.4406 19.7665V19.7155C42.4406 19.5287 42.3839 19.3871 42.2707 19.2909C42.1575 19.1946 41.9933 19.1437 41.7838 19.1437C41.5403 19.1437 41.2856 19.2003 41.0195 19.3135L40.8553 18.8209C41.1837 18.6737 41.5234 18.6001 41.8744 18.6001C42.265 18.6001 42.5538 18.6964 42.752 18.8945C42.9501 19.0927 43.0464 19.3701 43.0464 19.7325V21.3179L43.035 21.3066ZM42.4406 20.3384V20.1855C42.2594 20.1119 42.0556 20.0779 41.8291 20.0779C41.6366 20.0779 41.4837 20.1175 41.3762 20.1912C41.2686 20.2648 41.212 20.3723 41.212 20.5026C41.212 20.6215 41.2629 20.7177 41.3592 20.7913C41.4554 20.8649 41.58 20.8989 41.7272 20.8989C41.931 20.8989 42.1009 20.848 42.2367 20.7404C42.3726 20.6385 42.4349 20.5026 42.4349 20.3327L42.4406 20.3384Z" fill="#414042"/>
<path d="M44.2693 21.3063V18.6281H44.8694V20.423C45.4299 19.6247 45.8546 19.0302 46.1377 18.6281H46.7152V21.3063H46.1207V19.5228L44.8468 21.3063H44.2693ZM46.0244 18.1299C45.8829 18.2544 45.7074 18.3224 45.4922 18.3224C45.2771 18.3224 45.1016 18.2601 44.96 18.1299C44.8185 17.9996 44.7279 17.8298 44.6939 17.6146L45.0676 17.541C45.1412 17.7732 45.2771 17.8864 45.4866 17.8864C45.696 17.8864 45.8376 17.7732 45.9055 17.541L46.2735 17.6146C46.2396 17.8298 46.1546 18.0053 46.0131 18.1299H46.0244Z" fill="#414042"/>
<path d="M48.5666 21.3066V19.155H47.706V18.6284H50.0443V19.155H49.1837V21.3066H48.5666Z" fill="#414042"/>
<path d="M52.2071 21.3689C51.7995 21.3689 51.4654 21.233 51.1937 20.9612C50.9219 20.6894 50.786 20.361 50.786 19.9703C50.786 19.5796 50.9219 19.2512 51.1937 18.9795C51.4654 18.7077 51.8051 18.5718 52.2128 18.5718C52.6204 18.5718 52.9545 18.7077 53.2262 18.9795C53.498 19.2512 53.6339 19.5796 53.6339 19.9703C53.6339 20.361 53.498 20.6837 53.2262 20.9555C52.9545 21.2273 52.6091 21.3632 52.2014 21.3632L52.2071 21.3689ZM52.2184 20.8366C52.4619 20.8366 52.6601 20.7517 52.8073 20.5875C52.9545 20.4233 53.0281 20.2195 53.0281 19.976C53.0281 19.7325 52.9488 19.5343 52.7959 19.3645C52.6431 19.2003 52.4449 19.1153 52.2071 19.1153C51.9693 19.1153 51.7712 19.2003 51.624 19.3645C51.4767 19.5287 51.4031 19.7325 51.4031 19.976C51.4031 20.2195 51.4824 20.4176 51.6353 20.5818C51.7881 20.7517 51.9863 20.8366 52.2184 20.8366Z" fill="#414042"/>
<path d="M54.7719 21.3066V18.6284H56.1477C56.4138 18.6284 56.6289 18.6907 56.7874 18.8096C56.946 18.9285 57.0252 19.0927 57.0252 19.2965C57.0252 19.574 56.8837 19.7835 56.5949 19.9081C56.963 20.0156 57.1498 20.2365 57.1498 20.5762C57.1498 20.8027 57.0592 20.9782 56.8837 21.1084C56.7082 21.2387 56.4647 21.3009 56.1646 21.3009H54.7775L54.7719 21.3066ZM55.372 19.7382H56.0005C56.125 19.7382 56.2213 19.7099 56.2949 19.6476C56.3685 19.5853 56.4024 19.506 56.4024 19.4098C56.4024 19.3192 56.3685 19.2456 56.3062 19.189C56.2439 19.1323 56.142 19.104 56.0118 19.104H55.372V19.7382ZM55.372 20.8253H56.0684C56.2156 20.8253 56.3288 20.797 56.4081 20.7291C56.4874 20.6668 56.527 20.5818 56.527 20.4799C56.527 20.378 56.4874 20.2987 56.4024 20.2421C56.3175 20.1855 56.1986 20.1572 56.0401 20.1572H55.3777V20.8253H55.372Z" fill="#414042"/>
<path d="M58.2255 21.3063V20.6099H58.8993V21.3063H58.2255Z" fill="#414042"/>
<path d="M62.1661 21.3066V18.6284H62.7719L63.6098 19.8684L64.4534 18.6284H65.0592V21.3066H64.4421V19.523L63.5985 20.7234L62.7605 19.5344V21.3066H62.1604H62.1661Z" fill="#414042"/>
<path d="M68.5809 21.3066H67.9751V20.9782C67.7599 21.233 67.4712 21.3632 67.1088 21.3632C66.8427 21.3632 66.6163 21.2896 66.4351 21.1424C66.2539 20.9952 66.1577 20.7913 66.1577 20.5252C66.1577 20.2365 66.2596 20.0213 66.4577 19.8741C66.6559 19.7269 66.9163 19.6533 67.2447 19.6533C67.5052 19.6533 67.7543 19.6929 67.9864 19.7665V19.7155C67.9864 19.5287 67.9298 19.3871 67.8165 19.2909C67.7033 19.1946 67.5391 19.1437 67.3296 19.1437C67.0862 19.1437 66.8314 19.2003 66.5653 19.3135L66.4011 18.8209C66.7295 18.6737 67.0692 18.6001 67.4202 18.6001C67.8109 18.6001 68.0996 18.6964 68.2978 18.8945C68.496 19.0927 68.5922 19.3701 68.5922 19.7325V21.3179L68.5809 21.3066ZM67.9864 20.3384V20.1855C67.8052 20.1119 67.6014 20.0779 67.3749 20.0779C67.1824 20.0779 67.0296 20.1175 66.922 20.1912C66.8144 20.2648 66.7578 20.3723 66.7578 20.5026C66.7578 20.6215 66.8088 20.7177 66.905 20.7913C67.0013 20.8649 67.1258 20.8989 67.273 20.8989C67.4768 20.8989 67.6467 20.848 67.7826 20.7404C67.9185 20.6385 67.9807 20.5026 67.9807 20.3327L67.9864 20.3384Z" fill="#414042"/>
<path d="M69.8151 22.1216V18.6338H70.4266V19.0811C70.6644 18.747 70.9645 18.5771 71.3325 18.5771C71.6722 18.5771 71.9609 18.7017 72.21 18.9565C72.4592 19.2056 72.5781 19.551 72.5781 19.9757C72.5781 20.4004 72.4535 20.7344 72.21 20.9892C71.9666 21.2383 71.6722 21.3686 71.3325 21.3686C70.9645 21.3686 70.6644 21.21 70.4266 20.8986V22.1273H69.8151V22.1216ZM71.1909 20.8363C71.4061 20.8363 71.5873 20.7571 71.7345 20.5985C71.8817 20.44 71.9553 20.2305 71.9553 19.97C71.9553 19.7096 71.8817 19.5114 71.7345 19.3529C71.5873 19.1943 71.4061 19.115 71.1909 19.115C70.9758 19.115 70.7946 19.1943 70.6417 19.3585C70.4889 19.5227 70.4096 19.7266 70.4096 19.9814C70.4096 20.2362 70.4889 20.4343 70.6417 20.5985C70.7946 20.7571 70.9814 20.842 71.1909 20.842V20.8363Z" fill="#414042"/>
<path d="M73.7159 21.3066V18.6284H74.3218V19.9081L75.4881 18.6284H76.2071L75.171 19.7552L76.2977 21.3066H75.573L74.7634 20.2025L74.3274 20.6611V21.3066H73.7216H73.7159Z" fill="#414042"/>
<path d="M78.302 21.3686C77.9114 21.3686 77.583 21.2383 77.3225 20.9779C77.0621 20.7174 76.9319 20.3834 76.9319 19.97C76.9319 19.5793 77.0564 19.2509 77.2999 18.9848C77.549 18.713 77.8604 18.5771 78.2397 18.5771C78.6474 18.5771 78.9588 18.713 79.1853 18.9905C79.4117 19.2679 79.525 19.6077 79.525 20.0153C79.525 20.0889 79.525 20.1456 79.5136 20.1852H77.549C77.583 20.4004 77.6679 20.5646 77.8094 20.6835C77.951 20.8024 78.1209 20.8646 78.319 20.8646C78.5851 20.8646 78.8229 20.7571 79.0437 20.5476L79.4004 20.8646C79.123 21.1987 78.7606 21.3686 78.3077 21.3686H78.302ZM77.5377 19.7832H78.9135C78.8909 19.5793 78.8229 19.4095 78.704 19.2736C78.5851 19.1377 78.4266 19.0754 78.2341 19.0754C78.0416 19.0754 77.8944 19.1434 77.7698 19.2736C77.6453 19.4038 77.5717 19.5737 77.5434 19.7832H77.5377Z" fill="#414042"/>
<path d="M81.116 21.3066V19.155H80.2554V18.6284H82.5937V19.155H81.7331V21.3066H81.116Z" fill="#414042"/>
<path d="M83.5902 21.3066V18.6284H84.1904V20.4233C84.7509 19.625 85.1755 19.0304 85.4586 18.6284H86.0361V21.3066H85.4416V19.523L84.1677 21.3066H83.5902Z" fill="#414042"/>
<path d="M87.3099 21.3066V18.6284H87.9213V19.7155H89.099V18.6284H89.7105V21.3066H89.099V20.2251H87.9213V21.3066H87.3099Z" fill="#414042"/>
<path d="M90.9901 21.3066V18.6284H92.8868V19.155H91.6072V21.3066H90.9958H90.9901Z" fill="#414042"/>
<path d="M17.3815 0.0336914H13.5768V14.8401H24.487V11.4995H17.3815V0.0336914Z" fill="#414042"/>
<path d="M46.7378 9.67629L43.0577 0.0336914H38.851L44.8978 14.9251H48.5156L54.585 0.0336914H50.435L46.7378 9.67629Z" fill="#414042"/>
<path d="M79.5363 0.0336914V8.17583L73.0649 0.0336914H69.8094V14.8401H73.5518V6.65272L80.1081 14.8401H83.2617V0.0336914H79.5363Z" fill="#414042"/>
<path d="M67.4825 0.0336914H56.2325V3.37435H67.4825V0.0336914Z" fill="#414042"/>
<path d="M59.573 7.68899L56.2325 5.76953V9.11019H67.4825V5.76953H59.573V7.68899Z" fill="#414042"/>
<path d="M59.573 13.419L56.2325 11.4995V14.8402H67.4825V11.4995H59.573V13.419Z" fill="#414042"/>
<path d="M0 0.0336914V3.37435V5.76942V9.11008V11.4995V14.8401H3.34044H11.6123V11.4995H3.34044V9.11008H11.6123V5.76942H3.34044V3.37435H11.6123V0.0336914H3.34044H0Z" fill="#414042"/>
<path d="M26.4573 0.0336914V3.37435V5.76942V9.11008V11.4995V14.8401H29.7978H37.7072V11.4995H29.7978V9.11008H37.7072V5.76942H29.7978V3.37435H37.7072V0.0336914H29.7978H26.4573Z" fill="#414042"/>
</svg>
