<svg width="62" height="62" viewBox="0 0 62 62" fill="none" xmlns="http://www.w3.org/2000/svg">
<path d="M31 0C13.88 0 0 13.88 0 31C0 48.12 13.88 62 31 62C48.12 62 62 48.12 62 31C62 13.88 48.12 0 31 0ZM45.3077 35.7692H31C30.3676 35.7692 29.761 35.518 29.3138 35.0708C28.8666 34.6236 28.6154 34.0171 28.6154 33.3846V11.9231C28.6154 11.2906 28.8666 10.6841 29.3138 10.2369C29.761 9.7897 30.3676 9.53846 31 9.53846C31.6324 9.53846 32.239 9.7897 32.6862 10.2369C33.1334 10.6841 33.3846 11.2906 33.3846 11.9231V31H45.3077C45.9401 31 46.5467 31.2512 46.9939 31.6984C47.4411 32.1456 47.6923 32.7522 47.6923 33.3846C47.6923 34.0171 47.4411 34.6236 46.9939 35.0708C46.5467 35.518 45.9401 35.7692 45.3077 35.7692Z" fill="#8CC63F"/>
</svg>
