<svg width="62" height="62" viewBox="0 0 62 62" fill="none" xmlns="http://www.w3.org/2000/svg">
<path d="M54.746 23.684L53.63 20.77L59.396 18.6C56.544 12.028 51.46 6.758 45.074 3.534L42.594 9.052L39.742 7.75L42.222 2.17C38.75 0.806 34.968 0 31 0C27.714 0 24.552 0.682 21.576 1.55L23.684 7.254L20.77 8.37L18.6 2.604C12.028 5.456 6.758 10.54 3.534 16.926L9.052 19.406L7.75 22.258L2.17 19.778C0.806 23.25 0 27.032 0 31C0 34.286 0.682 37.448 1.55 40.424L7.254 38.316L8.37 41.23L2.604 43.4C5.456 49.972 10.54 55.242 16.926 58.466L19.406 52.948L22.258 54.25L19.778 59.83C23.25 61.194 27.032 62 31 62C34.286 62 37.448 61.318 40.424 60.45L38.316 54.746L41.23 53.63L43.4 59.396C49.972 56.544 55.242 51.46 58.466 45.074L52.948 42.594L54.25 39.742L59.83 42.222C61.194 38.75 62 34.968 62 31C62 27.714 61.318 24.552 60.45 21.576L54.746 23.684ZM38.13 48.174C28.644 52.08 17.732 47.616 13.826 38.13C9.92 28.644 14.384 17.732 23.87 13.826C33.356 9.92 44.268 14.384 48.174 23.87C49.1156 26.1247 49.6026 28.5431 49.6071 30.9865C49.6117 33.4299 49.1336 35.8502 48.2004 38.1083C47.2671 40.3665 45.8971 42.4181 44.169 44.1454C42.4409 45.8728 40.3886 47.2418 38.13 48.174Z" fill="#8CC63F"/>
</svg>
