<svg width="62" height="53" viewBox="0 0 62 53" fill="none" xmlns="http://www.w3.org/2000/svg">
<path fill-rule="evenodd" clip-rule="evenodd" d="M-8.53181e-07 33.2963L-3.01123e-07 45.9259L48.2222 45.9259L48.2222 33.2963L-8.53181e-07 33.2963ZM48.2222 32.1482L48.2222 29.8148C48.2222 27.933 46.6801 26.4074 44.7778 26.4074L3.44444 26.4074C1.54213 26.4074 -1.08762e-06 27.933 -1.00536e-06 29.8148L-9.03368e-07 32.1482L48.2222 32.1482ZM-1.48943e-07 49.4074L-2.50936e-07 47.0741L48.2222 47.0741L48.2222 49.4074C48.2222 51.2893 46.6801 52.8148 44.7778 52.8148L3.44445 52.8148C1.54213 52.8148 -6.66838e-08 51.2893 -1.48943e-07 49.4074Z" fill="#8CC63F"/>
<path fill-rule="evenodd" clip-rule="evenodd" d="M13.7778 6.8889L13.7778 19.5185L62 19.5185L62 6.88889L13.7778 6.8889ZM62 5.74075L62 3.40741C62 1.52555 60.4579 1.77425e-06 58.5555 1.8574e-06L17.2222 3.66414e-06C15.3199 3.74729e-06 13.7778 1.52555 13.7778 3.40741L13.7778 5.74075L62 5.74075ZM13.7778 23L13.7778 20.6667L62 20.6667L62 23C62 24.8819 60.4579 26.4074 58.5555 26.4074L17.2222 26.4074C15.3199 26.4074 13.7778 24.8819 13.7778 23Z" fill="#8CC63F"/>
</svg>
