<svg width="219" height="72" viewBox="0 0 219 72" fill="none" xmlns="http://www.w3.org/2000/svg">
<path d="M73.0707 12.8105H77.5213L73 23.8076L72.7881 24.2551C72.4348 25.0557 72.0581 25.6915 71.6813 26.1389C71.3045 26.5864 70.8336 26.916 70.2919 27.128C69.7503 27.3399 69.0674 27.4341 68.2432 27.4341C67.6781 27.4341 67.0423 27.3399 66.3358 27.1751C65.6294 27.0102 65.0877 26.8218 64.7581 26.6335L66.0297 23.5251C66.689 23.737 67.3248 23.8547 67.9136 23.8547C68.2197 23.8547 68.4552 23.7841 68.62 23.6664L64.1458 12.8105H68.5965L70.8336 19.3805L73.0707 12.8105Z" fill="#333333"/>
<path d="M77.8274 12.8105H90.9674V16.5547H86.6345V27.2928H82.1132V16.5547H77.8274V12.8105Z" fill="#333333"/>
<path d="M106.745 12.8105V27.2928H102.223V19.5218L96.3364 27.2928H92.4274V12.8105H96.9487V20.4167L102.694 12.8105H106.721H106.745Z" fill="#333333"/>
<path d="M123.017 27.2927H118.495V16.484H114.751L114.657 20.5108C114.61 22.4417 114.28 23.9017 113.668 24.8908C113.056 25.8798 112.279 26.5391 111.36 26.8453C110.442 27.1514 109.335 27.2927 108.04 27.2927V23.7604C108.652 23.7133 109.17 23.4779 109.547 23.0775C109.924 22.6537 110.136 21.853 110.159 20.6991L110.348 12.834H123.017V27.3162V27.2927Z" fill="#333333"/>
<path d="M139.618 12.8105V27.2928H135.097V19.5218L129.21 27.2928H125.301V12.8105H129.822V20.4167L135.568 12.8105H139.595H139.618Z" fill="#333333"/>
<path d="M149.697 18.2971C150.945 18.4854 151.911 18.9564 152.641 19.7335C153.371 20.5106 153.724 21.4761 153.724 22.6535C153.724 23.6661 153.441 24.5374 152.9 25.2909C152.358 26.0445 151.605 26.6096 150.686 27.01C149.768 27.4103 148.732 27.5987 147.625 27.5987C146.306 27.5987 145.129 27.4103 144.069 27.01C143.033 26.6096 142.138 26.068 141.408 25.338L143.292 22.63C143.763 23.0067 144.422 23.36 145.27 23.6425C146.118 23.9487 146.801 24.09 147.319 24.09C147.884 24.09 148.355 23.9487 148.708 23.6661C149.061 23.3835 149.25 23.0538 149.25 22.63C149.25 22.2767 149.132 21.9706 148.896 21.688C148.661 21.4054 148.331 21.2642 147.884 21.2171C147.578 21.17 146.942 21.1229 146.024 21.1229C145.435 21.1229 145.035 21.1229 144.846 21.1229V18.8858L147.578 16.2719H142.75V12.7632H152.782L152.994 15.589L149.674 18.25L149.697 18.2971Z" fill="#333333"/>
<path d="M171.197 27.2928H166.464L165.639 25.1028H159.752L158.905 27.2928H154.242L160.459 12.8105H164.98L171.197 27.2928ZM162.719 17.4496L160.953 22.018H164.462L162.719 17.4496Z" fill="#333333"/>
<path d="M186.009 12.8105V23.5015H188.316V29.6947H183.795V27.3164H172.256V12.8341H176.754V23.6428H181.511V12.8341H186.032L186.009 12.8105Z" fill="#333333"/>
<path d="M204.07 12.8105V27.2928H199.549V19.5218L193.662 27.2928H189.753V12.8105H194.274V20.4167L200.02 12.8105H204.047H204.07Z" fill="#333333"/>
<path d="M219 27.2928H214.479V23.1954H213.231L210.24 27.2928H205.271L208.78 22.5831C207.791 22.1593 207.014 21.5705 206.496 20.7934C205.978 20.0164 205.695 19.098 205.695 18.0147C205.695 16.9315 205.954 16.0131 206.496 15.236C207.037 14.4589 207.815 13.8702 208.804 13.4464C209.816 13.0225 210.994 12.8105 212.359 12.8105H218.976V27.2928H219ZM214.479 19.8515V16.4134H212.501C211.794 16.4134 211.229 16.5547 210.805 16.8609C210.405 17.167 210.193 17.5673 210.193 18.1089C210.193 18.6741 210.381 19.098 210.782 19.4041C211.182 19.7102 211.747 19.8515 212.477 19.8515H214.455H214.479Z" fill="#333333"/>
<path d="M80.3235 48.4391V37.6304H84.8448V52.1126H65.2761V37.6304H69.7974V48.4391H72.7881V37.6304H77.3094V48.4391H80.3H80.3235Z" fill="#333333"/>
<path d="M101.446 37.6304V52.1126H96.9252V44.3417L91.0381 52.1126H87.129V37.6304H91.6503V45.2365L97.3961 37.6304H101.423H101.446Z" fill="#333333"/>
<path d="M113.268 43.0464V37.6538H117.789V52.1361H113.268V46.7906H108.275V52.1361H103.754V37.6538H108.275V43.0464H113.268Z" fill="#333333"/>
<path d="M66.5713 67.9841C66.0062 67.678 65.5588 67.2305 65.2291 66.6889C64.8994 66.1473 64.7346 65.5115 64.7346 64.8286C64.7346 64.1457 64.8994 63.5334 65.2291 62.9683C65.5588 62.4031 66.0062 61.9792 66.5713 61.6731C67.1365 61.367 67.7723 61.2021 68.4788 61.2021C69.6091 61.2021 70.551 61.5789 71.281 62.3325L70.4333 63.1567C69.9388 62.6386 69.3029 62.3796 68.5494 62.3796C68.102 62.3796 67.6781 62.4738 67.3249 62.6857C66.9717 62.8976 66.6655 63.1802 66.4771 63.557C66.2888 63.9338 66.171 64.3576 66.171 64.8286C66.171 65.2996 66.2652 65.747 66.4771 66.1238C66.6891 66.5005 66.9717 66.7831 67.3249 66.9951C67.6781 67.207 68.102 67.3012 68.5494 67.3012C69.3265 67.3012 69.9623 67.0421 70.4568 66.5005L71.3046 67.3012C70.9749 67.678 70.551 67.9841 70.08 68.1725C69.6091 68.3609 69.091 68.4786 68.5258 68.4786C67.8194 68.4786 67.1836 68.3138 66.6184 68.0076L66.5713 67.9841Z" fill="#8CC63F"/>
<path d="M73.3768 68.1016C72.9294 67.8425 72.5526 67.5129 72.2936 67.0654C72.0346 66.618 71.9168 66.1471 71.9168 65.6054C71.9168 65.0638 72.0346 64.5693 72.2936 64.1219C72.5526 63.6745 72.9058 63.3448 73.3768 63.0858C73.8478 62.8267 74.3423 62.709 74.931 62.709C75.5197 62.709 76.0378 62.8267 76.4852 63.0858C76.9326 63.3212 77.3094 63.6745 77.5684 64.0983C77.8274 64.5458 77.9452 65.0167 77.9452 65.5583C77.9452 66.1 77.8274 66.5945 77.5684 67.0419C77.3094 67.4893 76.9562 67.819 76.4852 68.078C76.0142 68.3371 75.5197 68.4548 74.931 68.4548C74.3423 68.4548 73.8478 68.3371 73.3768 68.078V68.1016ZM76.1791 66.8535C76.5087 66.5238 76.6736 66.1 76.6736 65.5819C76.6736 65.0638 76.5087 64.64 76.1791 64.3103C75.8494 64.0041 75.4255 63.8393 74.9075 63.8393C74.3894 63.8393 73.9655 64.0041 73.6594 64.3103C73.3297 64.6164 73.1649 65.0403 73.1649 65.5583C73.1649 66.0764 73.3297 66.5003 73.6594 66.83C73.9891 67.1596 74.4129 67.3245 74.931 67.3245C75.4491 67.3245 75.8494 67.1596 76.1791 66.83V66.8535Z" fill="#8CC63F"/>
<path d="M81.8071 65.5118L84.0442 68.3376H82.6077L81.0535 66.3595L79.4993 68.3376H78.0864L80.3 65.5118L78.1806 62.8037H79.6642L81.0771 64.664L82.4664 62.8037H83.9264L81.8071 65.4882V65.5118Z" fill="#8CC63F"/>
<path d="M89.6252 63.0857C90.049 63.3447 90.3552 63.6744 90.6142 64.1218C90.8497 64.5692 90.9674 65.0637 90.9674 65.6053C90.9674 66.1469 90.8497 66.665 90.6142 67.1124C90.3787 67.5363 90.049 67.8895 89.6252 68.125C89.2248 68.3605 88.7539 68.4782 88.2594 68.4782C87.859 68.4782 87.5058 68.4076 87.1761 68.2898C86.8464 68.1721 86.5639 67.9837 86.3284 67.7247V70.1031H85.0803V62.8502H86.3284V63.486C86.5639 63.2269 86.87 63.0386 87.1997 62.9208C87.5293 62.8031 87.9061 62.7324 88.2829 62.7324C88.7774 62.7324 89.2248 62.8502 89.6487 63.1092L89.6252 63.0857ZM89.2484 66.8298C89.5545 66.5237 89.7193 66.0998 89.7193 65.6053C89.7193 65.1108 89.5545 64.6634 89.2484 64.3337C88.9423 64.004 88.5419 63.8627 88.0474 63.8627C87.5529 63.8627 87.129 64.0276 86.7994 64.3337C86.4697 64.6398 86.3048 65.0637 86.3048 65.6053C86.3048 66.1469 86.4697 66.5473 86.7758 66.8534C87.1055 67.1595 87.5058 67.3244 88.0239 67.3244C88.5419 67.3244 88.9187 67.1595 89.2248 66.8534L89.2484 66.8298Z" fill="#8CC63F"/>
<path d="M96.2422 63.3218C96.6661 63.7222 96.8781 64.2873 96.8781 65.0409V68.3612H95.63V67.7018C95.4416 67.9138 95.1826 68.1022 94.8529 68.2435C94.5232 68.3847 94.1229 68.4554 93.6755 68.4554C93.2987 68.4554 92.9455 68.3847 92.6629 68.2199C92.3803 68.0786 92.1448 67.8667 91.98 67.5841C91.8152 67.3251 91.7445 67.0189 91.7445 66.6657C91.7445 66.1241 91.9329 65.7002 92.2861 65.347C92.6393 64.9938 93.2045 64.8289 93.9581 64.8289C94.4761 64.8289 95.0413 64.8525 95.6064 64.9231C95.6064 64.5699 95.4652 64.3109 95.2061 64.1225C94.9706 63.9341 94.6174 63.8399 94.1464 63.8399C93.8874 63.8399 93.6284 63.887 93.3458 64.0047C93.0632 64.1225 92.8277 64.2638 92.6158 64.4286L92.0035 63.5102C92.3332 63.2512 92.6864 63.0393 93.0868 62.898C93.4871 62.7567 93.8874 62.686 94.2877 62.686C95.159 62.686 95.7948 62.898 96.2187 63.2983L96.2422 63.3218ZM95.1355 66.9718C95.4181 66.7128 95.5829 66.4067 95.63 66.0535V65.9593C95.2297 65.8886 94.7587 65.8651 94.2877 65.8651C93.8168 65.8651 93.4635 65.9357 93.2752 66.077C93.0632 66.2183 92.969 66.4067 92.969 66.6422C92.969 67.1131 93.3458 67.3486 94.0993 67.3486C94.4997 67.3486 94.8529 67.2309 95.159 66.9718H95.1355Z" fill="#8CC63F"/>
<path d="M102.341 64.9696V62.8267H103.613V68.3605H102.341V66.0999H99.5862V68.3605H98.3381V62.8267H99.5862V64.9696H102.341Z" fill="#8CC63F"/>
<path d="M110.395 62.8267V68.337H109.147V64.7812L106.015 68.337H105.026V62.8267H106.297V66.3354L109.382 62.8267H110.395Z" fill="#8CC63F"/>
<path d="M115.128 65.6054L117.106 62.8267H118.331V68.3605H117.083V64.8754L115.269 67.348H114.963L113.15 64.8754V68.3605H111.902V62.8267H113.126L115.104 65.6054H115.128Z" fill="#8CC63F"/>
<path d="M128.386 62.8267V68.337H127.114V63.7921H124.359V68.337H123.111V62.8267H128.386Z" fill="#8CC63F"/>
<path d="M134.485 63.0857C134.909 63.3447 135.215 63.6744 135.474 64.1218C135.709 64.5692 135.827 65.0637 135.827 65.6053C135.827 66.1469 135.709 66.665 135.474 67.1124C135.238 67.5363 134.909 67.8895 134.485 68.125C134.085 68.3605 133.614 68.4782 133.119 68.4782C132.719 68.4782 132.365 68.4076 132.036 68.2898C131.706 68.1721 131.424 67.9837 131.188 67.7247V70.1031H129.94V62.8502H131.188V63.486C131.424 63.2269 131.73 63.0386 132.059 62.9208C132.389 62.8031 132.766 62.7324 133.143 62.7324C133.637 62.7324 134.085 62.8502 134.508 63.1092L134.485 63.0857ZM134.108 66.8298C134.414 66.5237 134.579 66.0998 134.579 65.6053C134.579 65.1108 134.414 64.6634 134.108 64.3337C133.802 64.004 133.402 63.8627 132.907 63.8627C132.413 63.8627 131.989 64.0276 131.659 64.3337C131.329 64.6398 131.165 65.0637 131.165 65.6053C131.165 66.1469 131.329 66.5473 131.635 66.8534C131.965 67.1595 132.365 67.3244 132.884 67.3244C133.402 67.3244 133.778 67.1595 134.085 66.8534L134.108 66.8298Z" fill="#8CC63F"/>
<path d="M142.326 62.8267V68.337H141.078V64.7812L137.946 68.337H136.957V62.8267H138.229V66.3354L141.314 62.8267H142.326Z" fill="#8CC63F"/>
<path d="M148.426 63.0857C148.849 63.3447 149.156 63.6744 149.415 64.1218C149.65 64.5692 149.768 65.0637 149.768 65.6053C149.768 66.1469 149.65 66.665 149.415 67.1124C149.179 67.5363 148.849 67.8895 148.426 68.125C148.025 68.3605 147.554 68.4782 147.06 68.4782C146.659 68.4782 146.306 68.4076 145.976 68.2898C145.647 68.1721 145.364 67.9837 145.129 67.7247V70.1031H143.881V62.8502H145.129V63.486C145.364 63.2269 145.67 63.0386 146 62.9208C146.33 62.8031 146.706 62.7324 147.083 62.7324C147.578 62.7324 148.025 62.8502 148.449 63.1092L148.426 63.0857ZM148.049 66.8298C148.355 66.5237 148.52 66.0998 148.52 65.6053C148.52 65.1108 148.355 64.6634 148.049 64.3337C147.743 64.004 147.342 63.8627 146.848 63.8627C146.353 63.8627 145.929 64.0276 145.6 64.3337C145.27 64.6398 145.105 65.0637 145.105 65.6053C145.105 66.1469 145.27 66.5473 145.576 66.8534C145.906 67.1595 146.306 67.3244 146.824 67.3244C147.342 67.3244 147.719 67.1595 148.025 66.8534L148.049 66.8298Z" fill="#8CC63F"/>
<path d="M152.146 68.1016C151.699 67.8425 151.322 67.5129 151.063 67.0654C150.804 66.618 150.686 66.1471 150.686 65.6054C150.686 65.0638 150.804 64.5693 151.063 64.1219C151.322 63.6745 151.675 63.3448 152.146 63.0858C152.617 62.8267 153.112 62.709 153.7 62.709C154.289 62.709 154.807 62.8267 155.255 63.0858C155.702 63.3212 156.079 63.6745 156.338 64.0983C156.597 64.5458 156.715 65.0167 156.715 65.5583C156.715 66.1 156.597 66.5945 156.338 67.0419C156.079 67.4893 155.726 67.819 155.255 68.078C154.784 68.3371 154.289 68.4548 153.7 68.4548C153.112 68.4548 152.617 68.3371 152.146 68.078V68.1016ZM154.948 66.8535C155.278 66.5238 155.443 66.1 155.443 65.5819C155.443 65.0638 155.278 64.64 154.948 64.3103C154.619 64.0041 154.195 63.8393 153.677 63.8393C153.159 63.8393 152.735 64.0041 152.429 64.3103C152.099 64.6164 151.934 65.0403 151.934 65.5583C151.934 66.0764 152.099 66.5003 152.429 66.83C152.758 67.1596 153.182 67.3245 153.7 67.3245C154.218 67.3245 154.619 67.1596 154.948 66.83V66.8535Z" fill="#8CC63F"/>
<path d="M162.908 67.3715H163.426V69.1612H162.131V68.3605H158.716V69.1612H157.421V67.3715H157.751C157.915 67.3715 158.033 67.2538 158.175 66.9947C158.292 66.7592 158.363 66.406 158.386 65.9821L158.481 62.8267H162.931V67.348L162.908 67.3715ZM161.66 63.8157H159.682L159.611 65.8173C159.611 66.4767 159.47 66.9947 159.211 67.3715H161.636V63.8157H161.66Z" fill="#8CC63F"/>
<path d="M169.007 62.8273H170.373L168.065 68.3376L167.876 68.7615C167.665 69.2795 167.382 69.6327 167.099 69.8447C166.793 70.0566 166.393 70.1744 165.851 70.1744C165.616 70.1744 165.38 70.1273 165.145 70.0566C164.909 69.986 164.721 69.9153 164.58 69.8211L164.957 68.9027C165.098 68.9734 165.239 69.0205 165.38 69.0676C165.522 69.1147 165.663 69.1147 165.781 69.1147C166.016 69.1147 166.181 69.0676 166.299 68.9734C166.417 68.8792 166.534 68.6908 166.628 68.4318L166.676 68.314L164.344 62.8037H165.71L167.335 66.9011L168.96 62.8037L169.007 62.8273Z" fill="#8CC63F"/>
<path d="M179.25 65.982C179.462 66.2175 179.58 66.5236 179.58 66.8769C179.58 67.3478 179.392 67.7246 179.015 67.9836C178.638 68.2427 178.12 68.384 177.461 68.384H174.611V62.8501H177.366C177.979 62.8501 178.473 62.9678 178.826 63.2269C179.18 63.4859 179.344 63.8156 179.344 64.263C179.344 64.5691 179.25 64.8282 179.085 65.0401C178.897 65.252 178.662 65.4169 178.355 65.5111C178.756 65.5817 179.062 65.7465 179.274 66.0056L179.25 65.982ZM175.859 63.9569V65.0636H177.272C177.837 65.0636 178.12 64.8753 178.12 64.4985C178.12 64.1453 177.837 63.9804 177.272 63.9804H175.859V63.9569ZM177.437 67.2536C177.743 67.2536 177.955 67.2065 178.096 67.1359C178.238 67.0417 178.308 66.924 178.308 66.712C178.308 66.3824 178.026 66.2175 177.484 66.2175H175.859V67.2772H177.437V67.2536Z" fill="#8CC63F"/>
<path d="M184.031 65.6054L186.009 62.8267H187.233V68.3605H185.985V64.8754L184.172 67.348H183.866L182.053 64.8754V68.3605H180.805V62.8267H182.029L184.007 65.6054H184.031Z" fill="#8CC63F"/>
<path d="M189.753 66.0763C189.824 66.4766 190.036 66.7827 190.342 66.9947C190.648 67.2066 191.048 67.3244 191.519 67.3244C191.825 67.3244 192.108 67.2773 192.32 67.2066C192.532 67.136 192.744 66.9711 192.908 66.7827L193.709 67.4892C193.097 68.125 192.343 68.4547 191.448 68.4547C190.883 68.4547 190.365 68.3369 189.894 68.0779C189.423 67.8189 189.07 67.4892 188.811 67.0418C188.552 66.5944 188.434 66.1234 188.434 65.5818C188.434 65.0402 188.552 64.5456 188.811 64.1218C189.046 63.6979 189.4 63.3447 189.847 63.1092C190.295 62.8737 190.789 62.7324 191.378 62.7324C191.896 62.7324 192.367 62.8502 192.767 63.0621C193.167 63.274 193.474 63.6037 193.709 63.9805C193.945 64.3573 194.039 64.8282 194.039 65.3227C194.039 65.4876 194.039 65.7231 193.968 66.0763H189.753ZM190.318 64.1689C190.036 64.3808 189.847 64.6869 189.776 65.0402H192.814C192.744 64.6398 192.579 64.3337 192.343 64.1453C192.084 63.9569 191.778 63.8392 191.378 63.8392C190.954 63.8392 190.601 63.9569 190.318 64.1689Z" fill="#8CC63F"/>
<path d="M196.229 68.1016C195.781 67.8661 195.405 67.5129 195.146 67.089C194.886 66.6651 194.745 66.1706 194.745 65.6054C194.745 65.0403 194.886 64.5693 195.146 64.1219C195.405 63.6745 195.781 63.3448 196.229 63.0858C196.676 62.8503 197.194 62.709 197.759 62.709C198.183 62.709 198.584 62.7796 198.96 62.9445C199.337 63.1093 199.667 63.3448 199.949 63.6509L199.055 64.4045C198.866 64.1925 198.678 64.0512 198.466 63.9806C198.254 63.8864 197.995 63.8393 197.736 63.8393C197.241 63.8393 196.841 64.0041 196.511 64.3103C196.182 64.6164 196.017 65.0403 196.017 65.5819C196.017 66.1235 196.182 66.5474 196.511 66.8535C196.841 67.1596 197.265 67.3245 197.783 67.3245C198.042 67.3245 198.277 67.2774 198.489 67.2067C198.701 67.1125 198.89 66.9712 199.078 66.7593L199.973 67.5129C199.714 67.819 199.384 68.0545 198.984 68.2193C198.607 68.3841 198.183 68.4548 197.759 68.4548C197.194 68.4548 196.7 68.3371 196.229 68.078V68.1016Z" fill="#8CC63F"/>
<path d="M200.326 62.8267H205.295V63.957H203.434V68.3605H202.186V63.957H200.326V62.8267Z" fill="#8CC63F"/>
<path d="M206.99 66.0763C207.061 66.4766 207.273 66.7827 207.579 66.9947C207.885 67.2066 208.286 67.3244 208.756 67.3244C209.063 67.3244 209.345 67.2773 209.557 67.2066C209.769 67.136 209.981 66.9711 210.146 66.7827L210.946 67.4892C210.334 68.125 209.581 68.4547 208.686 68.4547C208.121 68.4547 207.603 68.3369 207.132 68.0779C206.661 67.8189 206.307 67.4892 206.048 67.0418C205.789 66.5944 205.672 66.1234 205.672 65.5818C205.672 65.0402 205.789 64.5456 206.048 64.1218C206.284 63.6979 206.637 63.3447 207.085 63.1092C207.532 62.8737 208.026 62.7324 208.615 62.7324C209.133 62.7324 209.604 62.8502 210.005 63.0621C210.405 63.274 210.711 63.6037 210.946 63.9805C211.182 64.3573 211.276 64.8282 211.276 65.3227C211.276 65.4876 211.276 65.7231 211.206 66.0763H206.99ZM207.556 64.1689C207.273 64.3808 207.085 64.6869 207.014 65.0402H210.052C209.981 64.6398 209.816 64.3337 209.581 64.1453C209.322 63.9569 209.016 63.8392 208.615 63.8392C208.191 63.8392 207.838 63.9569 207.556 64.1689Z" fill="#8CC63F"/>
<path d="M212.1 68.3609V67.0893H213.56V68.3609H212.1ZM212.195 64.1222V61.2964H213.466V64.1222L213.278 66.218H212.383L212.195 64.1457V64.1222Z" fill="#8CC63F"/>
<path d="M52.56 45.1187C52.56 30.6129 26.28 0 26.28 0C26.28 0 0 30.6129 0 45.1187C0 58.6355 10.1965 69.7503 23.3129 71.2103C23.0539 69.4206 22.8184 67.3719 22.6535 65.1584C13.1165 63.4394 5.8871 55.1268 5.8871 45.0952C5.8871 34.4984 13.9642 25.809 24.3019 24.7964C25.3145 15.5419 26.28 8.12419 26.28 8.12419C26.28 8.12419 27.269 15.5419 28.2581 24.7964C38.5958 25.7855 46.6729 34.4984 46.6729 45.0952C46.6729 55.1268 39.4435 63.4394 29.9065 65.1584C29.7416 67.3719 29.5061 69.3971 29.2471 71.2103C42.3635 69.7268 52.56 58.6119 52.56 45.1187Z" fill="#8CC63F"/>
<path d="M43.541 45.1189C43.541 35.5818 35.8171 27.8579 26.28 27.8579C16.7429 27.8579 9.01904 35.5818 9.01904 45.1189C9.01904 54.656 16.7429 62.3798 26.28 62.3798C35.8171 62.3798 43.541 54.656 43.541 45.1189ZM16.0365 45.1189C16.0365 39.4673 20.6284 34.8753 26.28 34.8753C31.9316 34.8753 36.5236 39.4673 36.5236 45.1189C36.5236 50.7705 31.9316 55.3624 26.28 55.3624C20.6284 55.3624 16.0365 50.7705 16.0365 45.1189Z" fill="#333333"/>
</svg>
