<svg width="387" height="81" viewBox="0 0 387 81" fill="none" xmlns="http://www.w3.org/2000/svg">
<path d="M85.9 22.0685H92.3665L85.7974 38.0464L85.4895 38.6965C84.9762 39.8598 84.4288 40.7835 83.8814 41.4336C83.334 42.0837 82.6497 42.5627 81.8628 42.8706C81.0759 43.1785 80.0836 43.3154 78.8862 43.3154C78.065 43.3154 77.1412 43.1785 76.1148 42.939C75.0884 42.6995 74.3015 42.4258 73.8225 42.1521L75.67 37.6358C76.628 37.9438 77.5518 38.1148 78.4072 38.1148C78.8519 38.1148 79.1941 38.0122 79.4336 37.8411L72.9329 22.0685H79.3994L82.6497 31.6142L85.9 22.0685Z" fill="#333333"/>
<path d="M92.8112 22.0685H111.903V27.5085H105.607V43.1101H99.0382V27.5085H92.8112V22.0685Z" fill="#333333"/>
<path d="M134.826 22.0685V43.1101H128.257V31.8195L119.703 43.1101H114.024V22.0685H120.593V33.1196L128.941 22.0685H134.792H134.826Z" fill="#333333"/>
<path d="M158.468 43.1101H151.899V27.4059H146.459L146.322 33.2565C146.253 36.062 145.774 38.1833 144.885 39.6203C143.995 41.0573 142.866 42.0153 141.532 42.46C140.198 42.9048 138.59 43.1101 136.708 43.1101V37.978C137.597 37.9096 138.35 37.5674 138.897 36.9858C139.445 36.37 139.753 35.2067 139.787 33.5302L140.061 22.1027H158.468V43.1443V43.1101Z" fill="#333333"/>
<path d="M182.589 22.0685V43.1101H176.02V31.8195L167.466 43.1101H161.787V22.0685H168.356V33.1196L176.704 22.0685H182.555H182.589Z" fill="#333333"/>
<path d="M197.232 30.0403C199.046 30.314 200.448 30.9983 201.509 32.1273C202.57 33.2564 203.083 34.6592 203.083 36.3699C203.083 37.8411 202.672 39.107 201.885 40.2018C201.099 41.2967 200.004 42.1178 198.669 42.6995C197.335 43.2811 195.83 43.5548 194.222 43.5548C192.306 43.5548 190.595 43.2811 189.055 42.6995C187.55 42.1178 186.25 41.3309 185.189 40.2703L187.926 36.3357C188.61 36.8831 189.568 37.3963 190.8 37.8069C192.032 38.2516 193.024 38.4569 193.777 38.4569C194.598 38.4569 195.282 38.2516 195.795 37.8411C196.309 37.4305 196.582 36.9515 196.582 36.3357C196.582 35.8225 196.411 35.3777 196.069 34.9671C195.727 34.5565 195.248 34.3513 194.598 34.2828C194.153 34.2144 193.229 34.146 191.895 34.146C191.04 34.146 190.458 34.146 190.184 34.146V30.8956L194.153 27.0979H187.139V22H201.714L202.022 26.1057L197.198 29.9719L197.232 30.0403Z" fill="#333333"/>
<path d="M228.47 43.1101H221.593L220.395 39.9282H211.842L210.61 43.1101H203.836L212.868 22.0685H219.437L228.47 43.1101ZM216.153 28.8086L213.587 35.4462H218.684L216.153 28.8086Z" fill="#333333"/>
<path d="M249.99 22.0685V37.6016H253.343V46.5999H246.774V43.1443H230.009V22.1027H236.544V37.8069H243.455V22.1027H250.025L249.99 22.0685Z" fill="#333333"/>
<path d="M276.232 22.0685V43.1101H269.663V31.8195L261.11 43.1101H255.43V22.0685H261.999V33.1196L270.348 22.0685H276.198H276.232Z" fill="#333333"/>
<path d="M297.924 43.1101H291.355V37.1569H289.542L285.196 43.1101H277.977L283.075 36.2673C281.638 35.6514 280.509 34.7961 279.756 33.667C279.004 32.538 278.593 31.2036 278.593 29.6298C278.593 28.0559 278.97 26.7216 279.756 25.5925C280.543 24.4635 281.672 23.6081 283.109 22.9923C284.581 22.3764 286.291 22.0685 288.276 22.0685H297.89V43.1101H297.924ZM291.355 32.2985V27.3032H288.481C287.455 27.3032 286.633 27.5085 286.018 27.9533C285.436 28.3981 285.128 28.9797 285.128 29.7666C285.128 30.5878 285.402 31.2036 285.983 31.6484C286.565 32.0932 287.386 32.2985 288.447 32.2985H291.321H291.355Z" fill="#333333"/>
<path d="M332.566 38.3282V22.6239H339.135V43.6655H310.703V22.6239H317.272V38.3282H321.617V22.6239H328.186V38.3282H332.531H332.566Z" fill="#333333"/>
<path d="M363.255 22.6239V43.6655H356.686V32.3749L348.133 43.6655H342.453V22.6239H349.022V33.675L357.371 22.6239H363.221H363.255Z" fill="#333333"/>
<path d="M380.431 30.4928V22.6578H387V43.6994H380.431V35.9328H373.178V43.6994H366.608V22.6578H373.178V30.4928H380.431Z" fill="#333333"/>
<path d="M76.457 65.7022C75.6358 65.2574 74.9858 64.6074 74.5068 63.8204C74.0278 63.0335 73.7883 62.1097 73.7883 61.1175C73.7883 60.1253 74.0278 59.2358 74.5068 58.4146C74.9858 57.5935 75.6358 56.9776 76.457 56.5329C77.2781 56.0881 78.2019 55.8486 79.2283 55.8486C80.8706 55.8486 82.2391 56.396 83.2998 57.4908L82.0681 58.6883C81.3496 57.9356 80.4258 57.5593 79.3309 57.5593C78.6809 57.5593 78.065 57.6961 77.5518 58.0041C77.0386 58.312 76.5938 58.7225 76.3201 59.27C76.0464 59.8174 75.8753 60.4332 75.8753 61.1175C75.8753 61.8018 76.0122 62.4519 76.3201 62.9993C76.628 63.5467 77.0386 63.9573 77.5518 64.2652C78.065 64.5731 78.6809 64.71 79.3309 64.71C80.46 64.71 81.3838 64.3336 82.1023 63.5467L83.334 64.71C82.855 65.2574 82.2391 65.7022 81.5548 65.9759C80.8706 66.2496 80.1179 66.4207 79.2967 66.4207C78.2703 66.4207 77.3465 66.1812 76.5254 65.7364L76.457 65.7022Z" fill="#8CC63F"/>
<path d="M86.3448 65.8733C85.6948 65.497 85.1473 65.018 84.771 64.3679C84.3946 63.7179 84.2236 63.0336 84.2236 62.2467C84.2236 61.4597 84.3946 60.7412 84.771 60.0912C85.1473 59.4411 85.6606 58.9621 86.3448 58.5858C87.0291 58.2094 87.7476 58.0383 88.603 58.0383C89.4583 58.0383 90.211 58.2094 90.8611 58.5858C91.5111 58.9279 92.0586 59.4411 92.4349 60.057C92.8113 60.707 92.9823 61.3913 92.9823 62.1782C92.9823 62.9651 92.8113 63.6836 92.4349 64.3337C92.0586 64.9838 91.5454 65.4628 90.8611 65.8391C90.1768 66.2155 89.4583 66.3865 88.603 66.3865C87.7476 66.3865 87.0291 66.2155 86.3448 65.8391V65.8733ZM90.4163 64.06C90.8953 63.581 91.1348 62.9651 91.1348 62.2124C91.1348 61.4597 90.8953 60.8439 90.4163 60.3649C89.9373 59.9201 89.3215 59.6806 88.5687 59.6806C87.816 59.6806 87.2002 59.9201 86.7554 60.3649C86.2764 60.8097 86.0369 61.4255 86.0369 62.1782C86.0369 62.9309 86.2764 63.5468 86.7554 64.0258C87.2344 64.5048 87.8503 64.7443 88.603 64.7443C89.3557 64.7443 89.9373 64.5048 90.4163 64.0258V64.06Z" fill="#8CC63F"/>
<path d="M98.5933 62.1099L101.844 66.2156H99.7566L97.4985 63.3416L95.2403 66.2156H93.1875L96.4036 62.1099L93.3244 58.1753H95.4798L97.5327 60.8782L99.5513 58.1753H101.673L98.5933 62.0757V62.1099Z" fill="#8CC63F"/>
<path d="M109.952 58.5858C110.568 58.9621 111.013 59.4411 111.389 60.0912C111.732 60.7413 111.903 61.4598 111.903 62.2467C111.903 63.0336 111.732 63.7863 111.389 64.4364C111.047 65.0522 110.568 65.5654 109.952 65.9076C109.371 66.2497 108.686 66.4208 107.968 66.4208C107.386 66.4208 106.873 66.3181 106.394 66.1471C105.915 65.976 105.505 65.7023 105.162 65.3259V68.7816H103.349V58.2436H105.162V59.1674C105.505 58.7911 105.949 58.5174 106.428 58.3463C106.907 58.1752 107.455 58.0726 108.002 58.0726C108.721 58.0726 109.371 58.2436 109.987 58.62L109.952 58.5858ZM109.405 64.0258C109.85 63.581 110.089 62.9652 110.089 62.2467C110.089 61.5282 109.85 60.8781 109.405 60.3991C108.96 59.9201 108.379 59.7148 107.66 59.7148C106.942 59.7148 106.326 59.9543 105.847 60.3991C105.368 60.8439 105.128 61.4598 105.128 62.2467C105.128 63.0336 105.368 63.6152 105.813 64.06C106.292 64.5048 106.873 64.7443 107.626 64.7443C108.379 64.7443 108.926 64.5048 109.371 64.06L109.405 64.0258Z" fill="#8CC63F"/>
<path d="M119.567 58.9279C120.182 59.5095 120.49 60.3306 120.49 61.4255V66.2497H118.677V65.2917C118.403 65.5996 118.027 65.8733 117.548 66.0786C117.069 66.2839 116.487 66.3865 115.837 66.3865C115.29 66.3865 114.777 66.2839 114.366 66.0444C113.955 65.8391 113.613 65.5312 113.374 65.1206C113.134 64.7442 113.032 64.2995 113.032 63.7862C113.032 62.9993 113.305 62.3835 113.819 61.8703C114.332 61.3571 115.153 61.1176 116.248 61.1176C117.001 61.1176 117.822 61.1518 118.643 61.2544C118.643 60.7412 118.437 60.3649 118.061 60.0911C117.719 59.8174 117.206 59.6806 116.522 59.6806C116.145 59.6806 115.769 59.749 115.358 59.9201C114.948 60.0911 114.606 60.2964 114.298 60.5359L113.408 59.2016C113.887 58.8252 114.4 58.5173 114.982 58.312C115.564 58.1067 116.145 58.0041 116.727 58.0041C117.993 58.0041 118.916 58.312 119.532 58.8936L119.567 58.9279ZM117.959 64.231C118.369 63.8547 118.609 63.4099 118.677 62.8967V62.7598C118.095 62.6572 117.411 62.623 116.727 62.623C116.043 62.623 115.529 62.7256 115.256 62.9309C114.948 63.1362 114.811 63.4099 114.811 63.752C114.811 64.4363 115.358 64.7785 116.453 64.7785C117.035 64.7785 117.548 64.6074 117.993 64.231H117.959Z" fill="#8CC63F"/>
<path d="M128.428 61.3226V58.2091H130.276V66.2494H128.428V62.9649H124.425V66.2494H122.612V58.2091H124.425V61.3226H128.428Z" fill="#8CC63F"/>
<path d="M140.129 58.2091V66.2152H138.316V61.0489L133.765 66.2152H132.328V58.2091H134.176V63.307L138.658 58.2091H140.129Z" fill="#8CC63F"/>
<path d="M147.006 62.2464L149.88 58.2091H151.659V66.2494H149.846V61.1858L147.211 64.7782H146.767L144.132 61.1858V66.2494H142.319V58.2091H144.098L146.972 62.2464H147.006Z" fill="#8CC63F"/>
<path d="M166.269 58.2091V66.2152H164.421V59.6119H160.418V66.2152H158.605V58.2091H166.269Z" fill="#8CC63F"/>
<path d="M175.13 58.5858C175.746 58.9621 176.191 59.4411 176.567 60.0912C176.909 60.7413 177.08 61.4598 177.08 62.2467C177.08 63.0336 176.909 63.7863 176.567 64.4364C176.225 65.0522 175.746 65.5654 175.13 65.9076C174.548 66.2497 173.864 66.4208 173.146 66.4208C172.564 66.4208 172.051 66.3181 171.572 66.1471C171.093 65.976 170.682 65.7023 170.34 65.3259V68.7816H168.527V58.2436H170.34V59.1674C170.682 58.7911 171.127 58.5174 171.606 58.3463C172.085 58.1752 172.632 58.0726 173.18 58.0726C173.898 58.0726 174.548 58.2436 175.164 58.62L175.13 58.5858ZM174.583 64.0258C175.027 63.581 175.267 62.9652 175.267 62.2467C175.267 61.5282 175.027 60.8781 174.583 60.3991C174.138 59.9201 173.556 59.7148 172.838 59.7148C172.119 59.7148 171.503 59.9543 171.024 60.3991C170.545 60.8439 170.306 61.4598 170.306 62.2467C170.306 63.0336 170.545 63.6152 170.99 64.06C171.469 64.5048 172.051 64.7443 172.803 64.7443C173.556 64.7443 174.104 64.5048 174.548 64.06L174.583 64.0258Z" fill="#8CC63F"/>
<path d="M186.523 58.2091V66.2152H184.71V61.0489L180.16 66.2152H178.723V58.2091H180.57V63.307L185.052 58.2091H186.523Z" fill="#8CC63F"/>
<path d="M195.385 58.5858C196.001 58.9621 196.445 59.4411 196.822 60.0912C197.164 60.7413 197.335 61.4598 197.335 62.2467C197.335 63.0336 197.164 63.7863 196.822 64.4364C196.48 65.0522 196.001 65.5654 195.385 65.9076C194.803 66.2497 194.119 66.4208 193.4 66.4208C192.819 66.4208 192.306 66.3181 191.827 66.1471C191.348 65.976 190.937 65.7023 190.595 65.3259V68.7816H188.781V58.2436H190.595V59.1674C190.937 58.7911 191.382 58.5174 191.861 58.3463C192.34 58.1752 192.887 58.0726 193.435 58.0726C194.153 58.0726 194.803 58.2436 195.419 58.62L195.385 58.5858ZM194.837 64.0258C195.282 63.581 195.522 62.9652 195.522 62.2467C195.522 61.5282 195.282 60.8781 194.837 60.3991C194.393 59.9201 193.811 59.7148 193.092 59.7148C192.374 59.7148 191.758 59.9543 191.279 60.3991C190.8 60.8439 190.561 61.4598 190.561 62.2467C190.561 63.0336 190.8 63.6152 191.245 64.06C191.724 64.5048 192.306 64.7443 193.058 64.7443C193.811 64.7443 194.358 64.5048 194.803 64.06L194.837 64.0258Z" fill="#8CC63F"/>
<path d="M200.791 65.8733C200.141 65.497 199.593 65.018 199.217 64.3679C198.84 63.7179 198.669 63.0336 198.669 62.2467C198.669 61.4597 198.84 60.7412 199.217 60.0912C199.593 59.4411 200.106 58.9621 200.791 58.5858C201.475 58.2094 202.193 58.0383 203.049 58.0383C203.904 58.0383 204.657 58.2094 205.307 58.5858C205.957 58.9279 206.504 59.4411 206.881 60.057C207.257 60.707 207.428 61.3913 207.428 62.1782C207.428 62.9651 207.257 63.6836 206.881 64.3337C206.504 64.9838 205.991 65.4628 205.307 65.8391C204.623 66.2155 203.904 66.3865 203.049 66.3865C202.193 66.3865 201.475 66.2155 200.791 65.8391V65.8733ZM204.862 64.06C205.341 63.581 205.581 62.9651 205.581 62.2124C205.581 61.4597 205.341 60.8439 204.862 60.3649C204.383 59.9201 203.767 59.6806 203.015 59.6806C202.262 59.6806 201.646 59.9201 201.201 60.3649C200.722 60.8097 200.483 61.4255 200.483 62.1782C200.483 62.9309 200.722 63.5468 201.201 64.0258C201.68 64.5048 202.296 64.7443 203.049 64.7443C203.801 64.7443 204.383 64.5048 204.862 64.0258V64.06Z" fill="#8CC63F"/>
<path d="M216.426 64.8124H217.179V67.4127H215.297V66.2494H210.336V67.4127H208.454V64.8124H208.933C209.173 64.8124 209.344 64.6414 209.549 64.265C209.72 63.9229 209.823 63.4097 209.857 62.7938L209.994 58.2091H216.461V64.7782L216.426 64.8124ZM214.613 59.6461H211.739L211.636 62.5543C211.636 63.5123 211.431 64.265 211.055 64.8124H214.579V59.6461H214.613Z" fill="#8CC63F"/>
<path d="M225.288 58.2095H227.272L223.919 66.2156L223.646 66.8315C223.338 67.5842 222.927 68.0974 222.516 68.4053C222.072 68.7132 221.49 68.8843 220.703 68.8843C220.361 68.8843 220.019 68.8159 219.677 68.7132C219.335 68.6106 219.061 68.5079 218.856 68.3711L219.403 67.0367C219.608 67.1394 219.814 67.2078 220.019 67.2762C220.224 67.3447 220.429 67.3447 220.6 67.3447C220.943 67.3447 221.182 67.2762 221.353 67.1394C221.524 67.0025 221.695 66.7288 221.832 66.3525L221.901 66.1814L218.513 58.1753H220.498L222.859 64.1286L225.219 58.1753L225.288 58.2095Z" fill="#8CC63F"/>
<path d="M240.171 62.7939C240.479 63.136 240.65 63.5808 240.65 64.094C240.65 64.7783 240.376 65.3257 239.829 65.7021C239.281 66.0784 238.529 66.2837 237.571 66.2837H233.431V58.2434H237.434C238.323 58.2434 239.042 58.4145 239.555 58.7908C240.068 59.1672 240.308 59.6462 240.308 60.2962C240.308 60.741 240.171 61.1174 239.931 61.4253C239.658 61.7332 239.315 61.9727 238.871 62.1096C239.452 62.2122 239.897 62.4517 240.205 62.8281L240.171 62.7939ZM235.244 59.8515V61.4595H237.297C238.118 61.4595 238.529 61.1858 238.529 60.6384C238.529 60.1252 238.118 59.8857 237.297 59.8857H235.244V59.8515ZM237.536 64.6414C237.981 64.6414 238.289 64.573 238.494 64.4704C238.7 64.3335 238.802 64.1624 238.802 63.8545C238.802 63.3755 238.392 63.136 237.605 63.136H235.244V64.6756H237.536V64.6414Z" fill="#8CC63F"/>
<path d="M247.116 62.2464L249.99 58.2091H251.769V66.2494H249.956V61.1858L247.322 64.7782H246.877L244.242 61.1858V66.2494H242.429V58.2091H244.208L247.082 62.2464H247.116Z" fill="#8CC63F"/>
<path d="M255.43 62.931C255.533 63.5126 255.841 63.9574 256.286 64.2653C256.73 64.5732 257.312 64.7443 257.996 64.7443C258.441 64.7443 258.852 64.6759 259.16 64.5732C259.468 64.4706 259.776 64.2311 260.015 63.9574L261.178 64.9838C260.289 65.9076 259.194 66.3866 257.894 66.3866C257.073 66.3866 256.32 66.2155 255.636 65.8391C254.951 65.4628 254.438 64.9838 254.062 64.3337C253.685 63.6837 253.514 62.9994 253.514 62.2125C253.514 61.4255 253.685 60.707 254.062 60.0912C254.404 59.4753 254.917 58.9621 255.567 58.62C256.217 58.2779 256.936 58.0726 257.791 58.0726C258.544 58.0726 259.228 58.2436 259.81 58.5516C260.391 58.8595 260.836 59.3385 261.178 59.8859C261.52 60.4333 261.657 61.1176 261.657 61.8361C261.657 62.0756 261.657 62.4177 261.555 62.931H255.43ZM256.251 60.1596C255.841 60.4676 255.567 60.9123 255.465 61.4255H259.878C259.776 60.8439 259.536 60.3991 259.194 60.1254C258.818 59.8517 258.373 59.6806 257.791 59.6806C257.175 59.6806 256.662 59.8517 256.251 60.1596Z" fill="#8CC63F"/>
<path d="M264.839 65.8733C264.189 65.5312 263.642 65.018 263.265 64.4021C262.889 63.7863 262.684 63.0678 262.684 62.2467C262.684 61.4255 262.889 60.7412 263.265 60.0912C263.642 59.4411 264.189 58.9621 264.839 58.5858C265.489 58.2436 266.242 58.0383 267.063 58.0383C267.679 58.0383 268.261 58.141 268.808 58.3805C269.355 58.62 269.834 58.9621 270.245 59.4069L268.945 60.5017C268.671 60.1938 268.397 59.9885 268.09 59.8859C267.782 59.749 267.405 59.6806 267.029 59.6806C266.31 59.6806 265.729 59.9201 265.25 60.3649C264.771 60.8097 264.531 61.4255 264.531 62.2124C264.531 62.9994 264.771 63.6152 265.25 64.06C265.729 64.5048 266.345 64.7443 267.097 64.7443C267.474 64.7443 267.816 64.6759 268.124 64.5732C268.432 64.4364 268.705 64.2311 268.979 63.9231L270.279 65.018C269.903 65.4628 269.424 65.8049 268.842 66.0444C268.295 66.2839 267.679 66.3865 267.063 66.3865C266.242 66.3865 265.523 66.2155 264.839 65.8391V65.8733Z" fill="#8CC63F"/>
<path d="M270.792 58.2091H278.012V59.8514H275.309V66.2494H273.495V59.8514H270.792V58.2091Z" fill="#8CC63F"/>
<path d="M280.475 62.931C280.578 63.5126 280.886 63.9574 281.33 64.2653C281.775 64.5732 282.357 64.7443 283.041 64.7443C283.486 64.7443 283.896 64.6759 284.204 64.5732C284.512 64.4706 284.82 64.2311 285.06 63.9574L286.223 64.9838C285.333 65.9076 284.239 66.3866 282.938 66.3866C282.117 66.3866 281.365 66.2155 280.68 65.8391C279.996 65.4628 279.483 64.9838 279.106 64.3337C278.73 63.6837 278.559 62.9994 278.559 62.2125C278.559 61.4255 278.73 60.707 279.106 60.0912C279.449 59.4753 279.962 58.9621 280.612 58.62C281.262 58.2779 281.98 58.0726 282.836 58.0726C283.588 58.0726 284.273 58.2436 284.854 58.5516C285.436 58.8595 285.881 59.3385 286.223 59.8859C286.565 60.4333 286.702 61.1176 286.702 61.8361C286.702 62.0756 286.702 62.4177 286.599 62.931H280.475ZM281.296 60.1596C280.886 60.4676 280.612 60.9123 280.509 61.4255H284.923C284.82 60.8439 284.581 60.3991 284.238 60.1254C283.862 59.8517 283.417 59.6806 282.836 59.6806C282.22 59.6806 281.707 59.8517 281.296 60.1596Z" fill="#8CC63F"/>
<path d="M287.899 66.2498V64.4022H290.021V66.2498H287.899ZM288.036 60.0912V55.9856H289.884V60.0912L289.61 63.1363H288.31L288.036 60.1255V60.0912Z" fill="#8CC63F"/>
<path d="M59.76 51.2994C59.76 34.8064 29.88 0 29.88 0C29.88 0 0 34.8064 0 51.2994C0 66.6677 11.5932 79.3052 26.5065 80.9652C26.2119 78.9303 25.9442 76.601 25.7568 74.0842C14.9132 72.1297 6.69355 62.6784 6.69355 51.2726C6.69355 39.2242 15.8771 29.3445 27.631 28.1932C28.7823 17.671 29.88 9.2371 29.88 9.2371C29.88 9.2371 31.0045 17.671 32.129 28.1932C43.8829 29.3177 53.0665 39.2242 53.0665 51.2726C53.0665 62.6784 44.8468 72.1297 34.0032 74.0842C33.8158 76.601 33.5481 78.9035 33.2535 80.9652C48.1668 79.2784 59.76 66.641 59.76 51.2994Z" fill="#8CC63F"/>
<path d="M49.5055 51.2992C49.5055 40.4557 40.7236 31.6737 29.88 31.6737C19.0365 31.6737 10.2545 40.4557 10.2545 51.2992C10.2545 62.1428 19.0365 70.9247 29.88 70.9247C40.7236 70.9247 49.5055 62.1428 49.5055 51.2992ZM18.2332 51.2992C18.2332 44.8734 23.4542 39.6524 29.88 39.6524C36.3058 39.6524 41.5268 44.8734 41.5268 51.2992C41.5268 57.725 36.3058 62.946 29.88 62.946C23.4542 62.946 18.2332 57.725 18.2332 51.2992Z" fill="#333333"/>
</svg>
