<svg width="122" height="122" viewBox="0 0 122 122" fill="none" xmlns="http://www.w3.org/2000/svg">
<circle cx="61" cy="61" r="61" fill="#8CC63F"/>
<path d="M52.7883 74.8287C52.7198 74.2135 52.6855 73.3591 52.6855 72.2654C52.6855 68.3694 53.4738 65.0201 55.0504 62.2177C56.627 59.3469 59.0605 56.8521 62.3508 54.7331C64.5444 53.0927 66.1895 51.6573 67.2863 50.427C68.3831 49.1966 68.9314 47.7612 68.9314 46.1208C68.9314 44.1386 68.0746 42.6348 66.3609 41.6095C64.7157 40.5159 62.3508 39.9691 59.2661 39.9691C53.9879 39.9691 47.8185 42.1564 40.7581 46.5309L35 32.7921C44.3911 27.5974 53.1996 25 61.4254 25C66.3609 25 70.6794 25.786 74.381 27.3581C78.0827 28.9302 80.9274 31.1175 82.9153 33.9199C84.9718 36.7224 86 39.9691 86 43.6601C86 47.2144 85.0403 50.2561 83.121 52.7851C81.2016 55.2458 78.5282 57.8432 75.1008 60.5772C72.0161 63.0379 69.8911 65.2594 68.7258 67.2416C67.629 69.1554 67.0121 71.6845 66.875 74.8287H52.7883ZM50.629 98V82.0056H69.1371V98H50.629Z" fill="white"/>
</svg>
