<svg width="31" height="67" viewBox="0 0 31 67" fill="none" xmlns="http://www.w3.org/2000/svg">
<path fill-rule="evenodd" clip-rule="evenodd" d="M6 5.7735L1 2.88675L6 0V2.38675H25V0L30 2.88675L25 5.7735V3.38675H6V5.7735Z" fill="#8CC63F"/>
<path fill-rule="evenodd" clip-rule="evenodd" d="M0.999999 2.88678L1 38.8868L0 38.8868L-8.86945e-07 2.88678L0.999999 2.88678Z" fill="#8CC63F"/>
<path fill-rule="evenodd" clip-rule="evenodd" d="M31 2.88678L31 38.8868L30 38.8868L30 2.88678L31 2.88678Z" fill="#8CC63F"/>
<path fill-rule="evenodd" clip-rule="evenodd" d="M22.913 10.8868H8.08696V66.8868H22.913V10.8868ZM24.2609 66.8868H27C29.2091 66.8868 31 65.0959 31 62.8868V14.8868C31 12.6776 29.2091 10.8868 27 10.8868H24.2609V66.8868ZM4 10.8868H6.73913V66.8868H4C1.79086 66.8868 0 65.0959 0 62.8868V14.8868C0 12.6776 1.79086 10.8868 4 10.8868Z" fill="#8CC63F"/>
</svg>
