<svg width="56" height="67" viewBox="0 0 56 67" fill="none" xmlns="http://www.w3.org/2000/svg">
<path fill-rule="evenodd" clip-rule="evenodd" d="M28 55.8868C37.3888 55.8868 45 48.2756 45 38.8868C45 29.4979 37.3888 21.8868 28 21.8868C18.6112 21.8868 11 29.4979 11 38.8868C11 48.2756 18.6112 55.8868 28 55.8868ZM28 66.8868C43.464 66.8868 56 54.3508 56 38.8868C56 23.4228 43.464 10.8868 28 10.8868C12.536 10.8868 0 23.4228 0 38.8868C0 54.3508 12.536 66.8868 28 66.8868Z" fill="#8CC63F"/>
<path fill-rule="evenodd" clip-rule="evenodd" d="M6 5.7735L1 2.88675L6 4.37114e-07L6 2.38675L50 2.38676L50 4.28372e-06L55 2.88676L50 5.77351L50 3.38676L6 3.38675L6 5.7735Z" fill="#8CC63F"/>
<path fill-rule="evenodd" clip-rule="evenodd" d="M0.999998 2.88678L1 38.8868L0 38.8868L-1.57361e-06 2.88678L0.999998 2.88678Z" fill="#8CC63F"/>
<path fill-rule="evenodd" clip-rule="evenodd" d="M56 2.88678L56 38.8868L55 38.8868L55 2.88678L56 2.88678Z" fill="#8CC63F"/>
</svg>
