<svg width="31" height="24" viewBox="0 0 31 24" fill="none" xmlns="http://www.w3.org/2000/svg">
<path d="M29.6367 10.3271C28.6879 15.9011 27.6569 21.9946 27.6569 21.9946C27.6569 21.9946 27.4979 23.7043 26.1515 24C24.709 23.9792 23.3149 23.5089 22.1891 22.663C21.871 22.4394 16.2442 19.097 14.1849 17.4618C13.9748 17.3288 13.8042 17.1482 13.6888 16.9366C13.5733 16.7251 13.517 16.4896 13.5249 16.2521C13.5329 16.0146 13.6049 15.7829 13.7342 15.5785C13.8635 15.3742 14.0459 15.2039 14.2644 15.0835C17.087 12.6559 19.8607 10.1787 22.584 7.65317C23.5355 6.76101 24.487 4.68102 20.5247 7.20838C14.8978 10.849 9.35051 14.2659 9.35051 14.2659C8.77918 14.5076 8.16174 14.6388 7.5351 14.6516C6.90847 14.6644 6.28551 14.5586 5.70349 14.3405C3.32607 13.672 0.55379 12.7799 0.55379 12.7799C0.55379 12.7799 -1.34924 11.6666 1.90017 10.4659C1.90017 10.4659 15.6108 5.19009 20.3656 3.33378C22.1891 2.59075 28.3699 0.21251 28.3699 0.21251C28.3699 0.21251 31.2244 -0.828773 30.9858 1.69858C30.9063 2.75015 30.2729 6.39078 29.6367 10.3271Z" fill="#148BC6"/>
</svg>
