<svg width="26" height="28" viewBox="0 0 26 28" fill="none" xmlns="http://www.w3.org/2000/svg">
<path d="M25.7344 16.2096C26.5806 9.18431 25.3279 4.74905 23.0682 2.74299L23.0694 2.74182C19.4223 -0.683987 7.10535 -1.19104 2.74206 2.89569C0.782599 4.89476 0.0924145 7.82867 0.0167778 11.4608C-0.0588588 15.0941 -0.148677 21.9003 6.28162 23.7466H6.28753L6.28162 26.5663C6.28162 26.5663 6.23789 27.7086 6.97771 27.9383C7.82389 28.2087 8.20681 27.6783 10.8387 24.5777C15.2398 24.9542 18.6198 24.0917 19.0039 23.9658C19.8927 23.672 24.9213 23.0158 25.7344 16.2096ZM11.2725 22.5938C11.2725 22.5938 8.4869 26.0196 7.62062 26.909C7.33698 27.1981 7.02617 27.1713 7.03089 26.5978C7.03089 26.2213 7.05217 21.9166 7.05217 21.9166C1.60042 20.3756 1.92188 14.5801 1.98097 11.5482C2.04006 8.51523 2.6026 6.03126 4.26188 4.35857C8.08981 0.818521 18.8881 1.60999 21.6394 4.16041C25.0029 7.10131 23.8057 15.41 23.8128 15.6932C23.1214 21.3746 19.0465 21.7347 18.2972 21.9807C17.9769 22.0856 15.0046 22.8398 11.2725 22.5938Z" fill="#774E97"/>
<path d="M12.8135 5.02415C12.3585 5.02415 12.3585 5.72353 12.8135 5.72936C16.3437 5.75617 19.2509 8.18303 19.2828 12.6346C19.2828 13.1044 19.9801 13.0985 19.9742 12.6288H19.973C19.9352 7.83217 16.7608 5.05096 12.8135 5.02415Z" fill="#774E97"/>
<path d="M17.4569 11.8967C17.4463 12.3607 18.1424 12.3828 18.1483 11.9131C18.2062 9.26822 16.5528 7.08964 13.4458 6.86001C12.9908 6.82737 12.9435 7.53259 13.3974 7.56522C16.0919 7.76688 17.5113 9.58061 17.4569 11.8967Z" fill="#774E97"/>
<path d="M16.7124 14.9053C16.1286 14.5719 15.5341 14.7794 15.2883 15.1069L14.7742 15.7632C14.513 16.0965 14.0249 16.0522 14.0249 16.0522C10.4629 15.1232 9.51036 11.4468 9.51036 11.4468C9.51036 11.4468 9.46663 10.9491 9.79281 10.6821L10.4357 10.1576C10.7572 9.90583 10.9605 9.2997 10.6331 8.70406C9.75854 7.1456 9.17117 6.60824 8.87217 6.19561C8.55781 5.80745 8.08508 5.72003 7.59344 5.98229H7.5828C6.56053 6.57211 5.44134 7.67597 5.79943 8.81246C6.41044 10.0107 7.53317 13.8305 11.1117 16.7167C12.7935 18.0816 15.4549 19.4804 16.5847 19.8033L16.5954 19.8196C17.7087 20.1856 18.7912 19.0386 19.3691 18V17.9919C19.6256 17.4895 19.5405 17.0139 19.1658 16.7027C18.5017 16.0639 17.4995 15.3587 16.7124 14.9053Z" fill="#774E97"/>
<path d="M13.9327 9.46172C15.0685 9.52699 15.6192 10.1121 15.6783 11.3139C15.6996 11.7837 16.3909 11.751 16.3697 11.2813C16.294 9.71233 15.4644 8.8381 13.9706 8.75651C13.5156 8.7297 13.473 9.43491 13.9327 9.46172Z" fill="#774E97"/>
</svg>
