<svg width="122" height="122" viewBox="0 0 122 122" fill="none" xmlns="http://www.w3.org/2000/svg">
<circle cx="61" cy="61" r="61" fill="#8CC63F"/>
<path d="M58.3089 93.2941C56.3354 93.2941 54.3463 93.0692 52.3416 92.6195C50.337 92.1698 48.2893 91.5275 46.1986 90.6926C46.9162 83.4563 49.0094 76.6985 52.478 70.4191C55.9466 64.1397 60.402 58.6078 65.8442 53.8235C59.2657 57.1725 53.5688 61.598 48.7534 67.1C43.938 72.6019 40.5746 78.8813 38.6633 85.9382C38.4241 85.7588 38.1992 85.565 37.9887 85.3569L37.3177 84.6823C34.5069 81.8715 32.3683 78.7318 30.9019 75.2632C29.4355 71.7946 28.7035 68.1764 28.7059 64.4088C28.7059 60.3421 29.5133 56.4549 31.128 52.747C32.7427 49.0392 34.9854 45.75 37.8559 42.8794C42.7001 38.0353 48.9795 34.8812 56.6942 33.4172C64.4089 31.9532 75.2334 31.818 89.1677 33.0117C90.2442 47.3049 90.0648 58.2047 88.6295 65.7113C87.1942 73.2179 84.0844 79.3622 79.3001 84.1441C76.3697 87.0745 73.0948 89.3327 69.4755 90.9187C65.8561 92.5047 62.1339 93.2965 58.3089 93.2941Z" fill="white"/>
</svg>
